<?xml version="1.0" standalone="no"?>
<!DOCTYPE svg PUBLIC "-//W3C//DTD SVG 20010904//EN"
 "http://www.w3.org/TR/2001/REC-SVG-20010904/DTD/svg10.dtd">
<svg version="1.0" xmlns="http://www.w3.org/2000/svg"
 width="640.000000pt" height="320.000000pt" viewBox="0 0 640.000000 320.000000"
 preserveAspectRatio="xMidYMid meet">

<g transform="translate(0.000000,320.000000) scale(0.100000,-0.100000)"
fill="#000000" stroke="none">
<path d="M0 1600 l0 -1600 3200 0 3200 0 0 1600 0 1600 -3200 0 -3200 0 0
-1600z m2560 1430 c0 -5 7 -7 16 -3 21 8 61 -15 67 -39 3 -11 10 -17 16 -14 6
4 9 -6 9 -23 -1 -18 -5 -28 -11 -24 -6 4 4 -12 23 -35 21 -27 36 -38 41 -31 4
8 10 5 18 -7 13 -24 14 -9 1 17 -8 13 -7 19 0 19 15 0 23 -26 16 -55 -4 -16
-11 -22 -21 -19 -8 4 -15 1 -15 -4 0 -6 10 -12 22 -14 24 -3 61 -63 53 -85 -2
-7 0 -13 5 -13 6 0 10 -4 10 -10 0 -5 -9 -10 -19 -10 -11 0 -22 -8 -24 -17 -4
-14 -5 -13 -6 4 0 12 -7 24 -13 27 -7 3 -2 3 12 0 24 -5 24 -4 5 8 -11 7 -24
13 -30 13 -5 0 -11 14 -13 30 -2 22 0 26 7 15 12 -18 24 -8 15 14 -3 9 -16 16
-29 16 -12 0 -28 7 -35 15 -7 8 -18 15 -25 15 -13 0 -55 59 -55 77 0 5 7 10
15 10 9 0 15 -7 13 -16 -3 -22 24 -61 42 -60 10 0 11 2 3 6 -7 2 -13 9 -13 15
0 6 7 7 16 4 14 -6 15 -4 4 9 -11 13 -15 13 -23 3 -7 -10 -8 -9 -4 3 3 9 -3
26 -14 38 -13 14 -16 21 -7 22 9 0 8 2 -2 6 -8 3 -23 12 -32 21 -15 12 -18 13
-18 1 -1 -8 -11 -2 -24 15 -14 16 -21 36 -19 47 5 20 23 27 23 9z m148 -103
c13 -14 18 -27 13 -35 -6 -10 -14 -4 -29 22 -24 41 -16 47 16 13z m472 -38 c0
-6 -4 -7 -10 -4 -5 3 -10 11 -10 16 0 6 5 7 10 4 6 -3 10 -11 10 -16z m-30
-10 c0 -6 -4 -8 -9 -4 -5 3 -12 -4 -16 -15 -4 -11 -11 -18 -16 -15 -5 4 -9 -3
-9 -14 0 -10 4 -21 10 -23 6 -2 6 -16 -1 -40 -12 -44 -28 -51 -23 -10 2 16 1
19 -2 7 -9 -31 -22 -41 -36 -26 -11 11 -10 12 0 6 8 -4 13 -2 11 6 -3 28 1 39
16 39 11 0 15 11 15 43 0 36 4 46 23 54 23 11 37 8 37 -8z m78 -5 c1 -14 -2
-23 -7 -20 -5 3 -6 -14 -4 -39 5 -41 4 -44 -20 -50 -48 -13 -68 28 -22 45 18
7 25 17 25 35 0 14 5 25 11 25 8 0 8 5 -1 15 -10 12 -10 15 2 15 7 0 15 -11
16 -26z m-99 -211 c-12 -15 -12 -16 5 -10 12 5 22 3 27 -5 7 -11 12 -11 29 0
16 10 20 10 20 0 0 -8 5 -5 11 5 5 9 16 17 23 17 17 0 71 -58 62 -67 -4 -4
-11 -1 -16 7 -6 8 -10 11 -10 6 0 -5 -7 -3 -15 4 -8 7 -12 16 -9 21 3 5 1 9
-5 9 -5 0 -11 -5 -13 -11 -4 -13 -98 -23 -98 -10 0 4 -11 14 -25 21 -18 10
-22 16 -13 22 7 4 19 8 27 8 11 0 11 -3 0 -17z m-570 -54 c-11 -7 -12 -12 -1
-29 6 -11 12 -30 11 -42 0 -13 -3 -17 -6 -10 -2 6 -11 12 -18 12 -9 0 -12 11
-10 35 2 19 2 35 1 35 -1 0 -20 -9 -42 -19 -21 -11 -43 -17 -48 -14 -4 3 -5
-4 -1 -16 4 -12 2 -21 -4 -21 -18 0 -12 -18 7 -23 13 -4 11 -5 -5 -6 -20 -1
-23 4 -23 38 0 34 4 40 28 49 15 5 35 8 45 6 12 -1 17 2 13 11 -6 17 18 27 33
12 8 -8 11 -6 11 9 1 18 1 18 11 0 9 -14 8 -20 -2 -27z m291 -21 c14 -27 18
-44 11 -46 -6 -2 -11 -11 -12 -20 0 -9 -8 -1 -16 18 -14 31 -16 33 -24 15 -7
-18 -8 -19 -8 -1 -1 16 -3 16 -22 -5 -18 -21 -20 -21 -13 -4 4 11 7 31 8 44 1
13 7 26 15 29 9 3 11 -1 6 -17 -8 -25 0 -27 21 -6 9 8 12 19 9 25 -3 5 -4 10
-2 10 3 0 15 -19 27 -42z m934 10 c-5 -7 -2 -9 9 -5 11 4 14 2 10 -8 -3 -8 -9
-13 -13 -10 -15 10 -18 -23 -4 -50 8 -15 14 -30 14 -34 0 -9 -62 -8 -76 1 -7
5 -14 2 -17 -6 -4 -9 3 -17 16 -21 34 -10 67 -12 67 -2 0 6 77 5 98 -2 7 -3
17 5 14 13 -2 5 5 5 15 2 16 -6 16 -5 3 8 -8 8 -28 22 -45 31 l-30 15 37 -2
c20 -1 35 -5 33 -9 -3 -3 4 -14 15 -24 26 -23 25 -45 -1 -45 -12 0 -17 -4 -13
-11 4 -7 0 -9 -14 -5 -16 5 -22 0 -31 -25 -13 -39 -14 -49 -1 -29 8 13 10 12
10 -2 0 -10 -4 -18 -10 -18 -5 0 -10 -5 -10 -11 0 -5 5 -7 10 -4 6 3 10 1 10
-4 0 -6 5 -11 11 -11 6 0 8 9 4 20 -5 14 -2 20 10 20 9 0 15 6 12 13 -2 6 -11
11 -18 9 -8 -1 -5 5 6 13 18 15 20 15 24 -1 2 -14 5 -14 12 -3 7 11 9 11 9 1
0 -15 -27 -60 -51 -84 -15 -14 -18 -15 -23 -3 -3 8 -11 15 -18 15 -8 0 -9 -3
-3 -8 18 -13 16 -38 -4 -56 -15 -14 -24 -15 -40 -7 -11 6 -26 11 -33 11 -7 -1
-1 -8 15 -16 28 -15 37 -30 12 -20 -8 3 -30 -1 -48 -9 -19 -8 -37 -11 -41 -8
-3 4 -6 1 -6 -5 0 -16 60 -9 71 9 5 8 9 10 9 6 0 -5 -9 -22 -20 -37 l-21 -29
21 -11 c24 -13 28 -55 4 -46 -9 3 -28 6 -42 6 -37 0 -62 17 -43 29 9 6 6 9
-13 9 -16 0 -26 -6 -26 -15 0 -8 5 -11 10 -8 10 6 15 -9 10 -30 -1 -5 2 -7 6
-3 11 12 34 -11 27 -28 -3 -8 1 -14 11 -14 9 0 15 5 14 11 -2 6 3 14 11 17 8
3 11 0 7 -7 -4 -7 -2 -9 8 -5 8 3 16 -2 19 -13 3 -10 9 -29 12 -42 7 -23 7
-23 -16 -7 -31 22 -119 22 -119 1 0 -11 9 -15 33 -14 17 1 41 -2 51 -6 14 -6
17 -5 12 3 -5 8 -1 10 10 5 16 -6 16 -8 -2 -22 -10 -9 -19 -23 -18 -31 2 -26
16 -50 25 -44 6 3 16 1 23 -5 15 -13 45 18 38 39 -4 12 -3 13 10 2 24 -19 29
-64 10 -80 -16 -13 -16 -13 1 -8 18 6 17 -9 -5 -74 l-8 -25 3 26 c5 34 -21 52
-47 33 -15 -11 -17 -16 -7 -28 9 -11 9 -15 -1 -19 -10 -4 -11 -7 0 -18 6 -7
12 -21 12 -31 0 -10 5 -18 10 -18 6 0 10 7 10 15 0 8 5 15 10 15 7 0 7 -6 0
-19 -11 -22 -70 -55 -70 -40 0 6 -4 7 -10 4 -12 -7 -14 -26 -2 -24 19 3 21 -3
8 -29 -21 -41 -44 -58 -58 -44 -9 9 -9 12 1 12 10 0 11 3 2 13 -6 8 -7 17 -3
21 4 4 2 7 -3 6 -23 -5 -26 1 -11 24 10 15 12 27 6 31 -6 3 -10 -2 -10 -11 0
-14 -3 -15 -12 -6 -10 10 -10 15 2 22 8 6 21 8 28 5 6 -2 12 1 13 8 0 9 2 9 6
0 2 -7 14 -13 24 -13 11 0 17 5 14 10 -3 6 3 10 14 10 19 0 31 19 14 21 -47 4
-116 3 -125 -2 -6 -4 -22 -3 -34 1 -14 6 -24 5 -26 -1 -2 -5 -12 -1 -24 9 -15
15 -22 16 -31 6 -7 -6 -9 -15 -5 -19 4 -4 -3 -4 -15 -1 -18 6 -22 4 -17 -9 4
-8 13 -14 22 -13 8 2 17 -2 19 -7 2 -6 -8 -11 -21 -11 -14 0 -23 3 -20 7 2 5
-5 13 -16 19 -16 8 -20 8 -18 -2 3 -13 -40 -15 -71 -3 -12 5 -13 8 -2 14 9 6
5 10 -13 13 -18 4 -34 -2 -52 -17 l-25 -22 30 0 c24 0 28 3 20 14 -9 10 -8 13
4 13 9 0 18 -13 23 -32 3 -18 14 -38 23 -45 9 -6 16 -17 16 -24 0 -7 5 -14 12
-16 7 -3 9 3 6 16 -3 12 -9 21 -13 21 -4 0 -11 7 -14 16 -4 12 -2 15 9 10 8
-3 15 -1 15 4 0 6 -5 10 -12 10 -6 0 -9 2 -6 5 3 3 18 0 34 -6 16 -7 32 -12
36 -11 4 1 6 -9 5 -23 -1 -13 2 -24 7 -24 5 1 13 -5 18 -13 10 -13 8 -6 -9 40
-3 9 10 -1 29 -22 24 -27 35 -34 35 -23 0 9 -5 17 -11 17 -6 0 -17 9 -24 20
-10 17 -9 23 8 40 11 11 26 20 33 20 9 0 9 -2 -1 -9 -11 -7 -11 -9 2 -14 11
-5 16 -1 16 13 0 28 24 25 44 -5 20 -30 20 -42 1 -42 -8 0 -15 3 -15 7 0 4 -7
7 -15 7 -10 0 -12 -4 -5 -12 5 -7 8 -15 5 -18 -3 -4 -2 -5 2 -2 11 8 33 -16
33 -36 0 -11 4 -19 9 -19 6 0 6 12 1 30 -11 38 3 31 24 -12 21 -40 20 -54 -1
-37 -15 12 -16 12 -11 -7 4 -14 0 -21 -11 -21 -23 0 -41 16 -34 33 3 8 0 14
-6 14 -6 0 -11 -4 -11 -10 0 -5 -7 -7 -15 -4 -9 4 -18 -1 -21 -10 -6 -16 -8
-16 -25 0 -10 9 -29 17 -41 18 -13 1 -22 7 -21 13 1 6 -5 17 -14 24 -14 12
-15 11 -8 -11 8 -27 38 -60 55 -60 5 0 10 -6 11 -12 0 -9 2 -10 5 -1 4 7 14 9
34 3 15 -4 32 -4 36 0 5 5 19 -2 31 -16 21 -23 21 -24 2 -34 -10 -6 -19 -8
-19 -5 0 3 -10 0 -22 -6 -22 -12 -22 -11 -8 7 14 18 14 18 -5 2 -31 -26 -126
-33 -110 -8 2 4 -8 12 -23 19 -22 9 -24 9 -12 -1 16 -13 16 -48 -1 -48 -5 0
-8 3 -7 8 3 13 -14 42 -22 37 -13 -8 -40 6 -40 20 0 7 6 16 13 19 6 3 0 4 -14
1 -21 -4 -28 0 -32 15 -3 13 0 20 9 20 8 0 14 -4 14 -10 0 -20 29 -9 33 13 3
13 5 7 6 -18 3 -38 3 -38 11 -13 10 34 3 65 -16 72 -8 3 -14 2 -14 -3 0 -4
-27 -7 -60 -6 -33 0 -60 -3 -60 -7 0 -5 6 -8 14 -8 8 0 18 -5 22 -12 5 -8 2
-9 -9 -5 -10 3 -17 2 -17 -3 0 -6 6 -11 13 -11 6 -1 19 -2 27 -3 17 -1 27 -36
11 -36 -6 0 -11 5 -11 10 0 13 -27 13 -36 -1 -3 -6 -1 -16 6 -22 10 -9 12 -8
6 6 -4 13 -2 17 6 14 7 -2 12 -10 10 -17 -2 -8 4 -11 17 -7 21 5 25 -12 6 -25
-6 -5 -5 -8 3 -8 7 0 16 8 19 17 6 15 7 14 14 -3 5 -13 0 -24 -15 -37 -14 -12
-16 -15 -4 -11 15 5 38 -20 38 -41 0 -9 -127 8 -137 18 -2 2 -1 12 3 21 4 11
14 15 28 12 12 -3 9 0 -6 6 -16 7 -30 20 -33 29 -4 12 -12 16 -22 12 -11 -5
-14 -3 -8 6 4 7 18 11 31 8 19 -3 22 -1 13 9 -7 8 -18 10 -32 5 -12 -5 -28 -6
-35 -3 -10 3 -9 -3 3 -22 10 -15 15 -30 11 -33 -4 -4 -9 3 -12 15 -4 12 -15
24 -25 27 -10 4 -19 10 -19 15 0 9 67 26 83 22 4 -1 7 3 7 9 0 5 4 8 8 5 4 -2
9 5 9 17 2 18 0 19 -8 7 -7 -10 -12 -11 -15 -4 -3 6 -17 9 -32 7 -26 -3 -26
-3 -4 8 29 16 29 32 0 23 -20 -6 -21 -5 -9 10 10 11 10 16 2 16 -7 0 -19 7
-28 15 -12 12 -18 13 -29 4 -10 -8 -14 -8 -14 0 0 12 -30 16 -31 4 0 -5 -2
-16 -4 -25 -3 -14 2 -17 20 -12 30 8 65 -12 65 -36 0 -11 6 -20 14 -20 8 0 18
-4 21 -10 3 -5 -3 -10 -15 -10 -12 0 -29 13 -41 33 -12 17 -18 24 -15 13 5
-14 2 -17 -9 -12 -9 3 -14 2 -10 -3 3 -5 -1 -11 -7 -14 -21 -6 -48 4 -48 19 0
8 -4 14 -10 14 -5 0 -7 -7 -4 -15 4 -8 2 -15 -4 -15 -6 0 -15 14 -21 30 -11
33 -15 35 -59 19 -22 -7 -36 -7 -51 1 -24 12 -28 50 -6 50 8 0 14 -5 12 -11
-4 -21 30 -34 55 -21 13 6 32 11 43 9 12 -1 20 4 20 13 0 23 17 30 30 13 10
-13 13 -13 24 1 10 12 17 13 27 5 24 -20 12 34 -13 58 -13 13 -19 23 -13 23 7
0 5 7 -4 16 -9 8 -19 26 -22 40 -3 13 -10 21 -15 18 -5 -3 -9 0 -9 6 0 7 -7 9
-17 6 -17 -7 -17 -6 -1 10 9 9 28 17 42 17 14 0 23 3 20 8 -3 5 -12 9 -20 9
-7 0 -19 9 -26 20 -15 23 -30 27 -22 5 4 -8 1 -15 -5 -15 -6 0 -11 9 -11 20 0
11 -6 20 -12 20 -8 1 -7 5 4 13 11 9 14 18 7 28 -6 10 -9 10 -9 2 0 -7 -7 -13
-15 -13 -8 0 -15 -5 -15 -11 0 -5 -4 -7 -10 -4 -17 10 -11 34 8 33 9 0 22 0
27 2 31 8 55 -2 61 -25 4 -15 13 -25 24 -25 20 0 30 -19 30 -56 0 -15 -6 -24
-15 -24 -8 0 -15 -9 -15 -21 0 -11 4 -18 9 -15 5 4 7 -3 4 -14 -3 -11 -1 -20
5 -20 5 0 12 9 15 21 3 12 12 19 23 17 9 -2 19 3 21 10 3 7 -3 12 -14 12 -15
0 -16 2 -3 10 21 13 34 -4 26 -35 -5 -21 -12 -26 -26 -22 -16 4 -20 0 -19 -16
0 -12 3 -16 6 -9 8 19 27 14 38 -10 6 -13 16 -22 23 -21 7 2 12 -2 12 -9 0 -9
3 -9 11 -1 8 8 16 6 30 -8 11 -11 24 -17 29 -14 4 3 10 -1 13 -7 2 -7 7 -11 9
-8 3 3 1 16 -4 30 -7 20 -11 22 -18 10 -5 -8 -11 -12 -14 -9 -3 2 -1 11 4 19
8 12 13 13 30 3 28 -18 32 -16 13 7 -10 11 -23 20 -31 20 -7 0 -15 7 -18 15
-4 10 -18 14 -45 12 -25 -2 -38 1 -36 7 2 6 11 10 20 10 12 -1 15 6 12 27 -2
17 1 27 6 24 5 -4 9 -13 9 -21 0 -8 4 -13 9 -11 5 1 16 -7 25 -18 15 -19 15
-19 9 5 -9 37 -65 86 -138 119 -21 9 -25 15 -15 19 7 3 16 0 18 -7 2 -6 11
-11 20 -11 23 0 86 -23 94 -35 5 -6 8 -5 8 3 0 6 6 12 14 12 7 0 19 7 26 15 7
8 16 13 20 10 5 -3 12 0 16 6 5 9 0 10 -14 7 -12 -4 -22 -2 -22 4 0 5 -9 6
-22 2 -30 -10 -122 -5 -126 7 -2 5 -8 7 -12 4 -5 -3 -11 -1 -14 4 -3 5 1 11 9
15 8 3 15 2 15 -2 0 -4 11 -8 25 -9 77 -5 98 -4 109 7 8 9 5 11 -14 10 -14 -1
-36 1 -50 6 -24 7 -24 8 10 21 l35 13 -35 -6 c-19 -3 -39 -10 -45 -15 -5 -5
-21 -9 -37 -9 -21 0 -26 4 -21 16 3 9 13 14 23 11 18 -5 53 26 43 37 -4 3 -1
6 5 6 7 0 12 5 12 11 0 5 -5 7 -10 4 -6 -3 -14 4 -19 17 -9 21 -10 21 -11 3 0
-16 -2 -17 -9 -6 -5 8 -7 19 -5 26 3 6 -2 12 -10 12 -8 0 -13 -3 -11 -7 2 -4
-14 -14 -35 -24 -37 -16 -59 -43 -25 -29 10 3 15 1 13 -7 -2 -7 3 -15 11 -18
8 -3 11 0 7 7 -4 6 -2 11 4 11 6 0 8 5 5 10 -8 13 5 13 25 0 12 -8 12 -10 1
-10 -8 0 -12 -3 -8 -6 3 -4 0 -13 -8 -21 -8 -8 -15 -23 -15 -34 0 -11 -7 -22
-16 -26 -17 -6 -34 12 -34 37 1 11 4 10 15 -4 8 -11 15 -16 15 -10 0 5 -7 17
-14 26 -12 17 -15 16 -44 -12 -18 -17 -34 -30 -37 -30 -3 0 -5 17 -5 38 0 42
-6 54 -35 70 -19 11 -19 11 3 12 12 0 30 -8 40 -18 10 -10 27 -22 38 -25 18
-7 18 -6 2 6 -10 8 -15 17 -11 20 3 4 -1 7 -9 7 -15 0 -28 20 -28 43 0 7 4 7
9 -2 8 -12 12 -12 26 2 9 10 19 17 23 18 4 0 15 2 25 4 9 2 17 -2 17 -8 0 -7
5 -4 11 6 8 13 14 15 29 7 16 -9 18 -8 13 6 -3 9 -13 14 -24 11 -12 -3 -19 2
-23 19 -5 19 -10 22 -28 15 -17 -6 -26 -3 -40 15 -10 12 -18 30 -18 41 0 15
-2 16 -10 3 -9 -13 -9 1 0 40 0 3 7 -10 15 -28 8 -18 19 -31 25 -27 5 3 11 -4
11 -17 l2 -23 4 23 c4 18 10 23 31 20 15 -2 26 -8 25 -15 -4 -19 25 -4 32 16
3 12 18 18 47 20 52 3 62 4 68 13 3 3 22 9 43 13 26 5 37 4 37 -5 0 -7 -7 -10
-15 -6 -10 3 -15 -1 -15 -11 0 -13 -3 -14 -12 -5 -17 17 -31 15 -25 -2 4 -9
-1 -16 -11 -19 -9 -2 -1 -4 20 -3 20 1 36 6 35 11 -2 12 34 7 48 -6 7 -7 4 -8
-8 -3 -13 5 -16 2 -10 -12 4 -12 3 -15 -5 -10 -7 4 -12 1 -12 -8 0 -12 -6 -13
-31 -6 -30 9 -30 8 -27 -23 3 -28 7 -32 33 -33 48 -2 52 -5 25 -16 -24 -10
-24 -10 -5 -18 18 -7 17 -8 -9 -15 -20 -5 -31 -4 -37 6 -6 10 -9 6 -9 -13 0
-22 6 -29 28 -34 46 -10 48 -12 12 -14 -33 -1 -33 -2 -12 -12 29 -15 28 -28
-4 -28 -14 0 -23 -4 -20 -9 3 -4 17 -6 31 -3 21 4 26 0 31 -25 4 -20 15 -33
34 -40 25 -9 27 -8 23 11 -4 21 -4 21 11 2 21 -26 20 -31 -6 -44 -18 -8 -19
-11 -5 -11 9 -1 17 -3 17 -5 0 -2 3 -13 6 -23 6 -17 6 -17 -8 0 -12 16 -17 17
-41 6 -19 -8 -24 -15 -15 -20 9 -6 9 -11 0 -22 -7 -7 -9 -17 -5 -20 6 -7 -18
-11 -49 -8 -12 2 -16 -3 -12 -13 3 -9 10 -16 16 -16 5 0 6 -6 3 -12 -4 -7 0
-5 8 5 14 17 16 16 22 -14 5 -23 10 -28 16 -18 8 12 11 12 19 -1 9 -14 11 -13
14 9 0 5 5 13 10 18 5 5 6 2 1 -5 -5 -10 -2 -13 11 -10 11 2 25 -3 32 -12 11
-13 11 -12 2 7 -5 12 -20 29 -32 37 -12 9 -19 16 -14 16 5 0 1 9 -9 20 -19 20
-8 29 12 9 8 -8 17 -6 32 7 25 22 26 28 5 48 -14 15 -14 16 0 16 9 0 16 -7 16
-15 0 -8 5 -15 11 -15 6 0 8 7 5 16 -3 9 -6 20 -6 25 0 5 -7 9 -15 9 -8 0 -15
8 -15 18 0 13 2 14 9 4 7 -11 9 -11 14 1 7 18 -1 27 -24 27 -11 0 -25 14 -34
34 -17 36 -12 59 19 86 19 15 22 0 4 -18 -9 -9 -6 -12 13 -12 18 0 29 -8 37
-25 16 -34 15 -37 -5 -34 -10 1 -27 0 -38 0 l-20 -2 20 -8 c11 -4 36 -11 55
-14 30 -6 32 -5 18 6 -12 10 -14 17 -6 31 8 14 7 17 -1 12 -10 -7 -16 6 -12
27 1 5 -7 11 -18 14 -18 5 -38 49 -26 61 3 3 5 0 5 -6 0 -6 7 -9 15 -6 9 4 15
0 15 -10 0 -9 5 -16 11 -16 5 0 7 5 4 10 -3 6 2 10 12 10 10 0 32 9 48 20 20
13 24 20 13 20 -9 0 -19 -6 -21 -12 -3 -7 -6 -2 -6 12 -1 14 -8 35 -16 47 -13
18 -13 22 0 33 8 6 19 9 26 5 8 -6 8 -9 -1 -15 -8 -5 -7 -12 5 -24 10 -9 20
-14 23 -11 4 3 2 9 -4 13 -17 11 -12 59 6 58 8 -1 14 5 12 12 -1 8 3 12 10 10
20 -7 23 -68 4 -68 -22 0 -20 -17 2 -24 9 -3 23 -15 30 -27 8 -12 9 -18 3 -14
-6 3 -11 -1 -11 -9 0 -9 8 -17 18 -17 16 -1 16 -2 0 -6 -10 -2 -18 -9 -18 -15
0 -5 6 -8 14 -5 7 3 19 0 25 -6 10 -9 11 -5 5 17 -5 21 -4 27 5 22 7 -5 11 2
11 18 0 14 5 26 12 26 13 0 48 29 48 41 0 4 -9 5 -20 2 -11 -3 -20 -9 -20 -15
0 -5 -9 -4 -20 2 -11 6 -28 10 -38 8 -13 -2 -17 4 -18 27 0 17 -4 36 -8 43 -4
7 -2 12 4 12 6 0 9 4 6 9 -4 5 3 7 14 4 11 -3 23 -9 26 -14 3 -5 17 -9 31 -9
18 0 24 -4 19 -15 -3 -8 3 -19 14 -25 32 -17 40 -13 30 15 -10 26 -2 33 17 14
9 -9 16 -8 28 5 20 20 20 20 53 -1 l27 -17 -22 23 c-30 29 -29 33 4 16 15 -8
29 -12 31 -10 9 8 -20 35 -37 35 -9 0 -22 5 -29 12 -11 11 -17 2 -14 -23 1 -6
-83 6 -108 15 -21 9 -23 86 -3 86 9 0 13 -6 10 -15 -4 -8 -1 -17 5 -21 7 -5 8
-2 3 6 -6 10 -2 12 16 7 23 -6 23 -5 5 8 -23 17 -9 19 28 5 22 -8 26 -7 26 9
0 11 3 21 8 24 4 2 1 2 -7 0 -7 -2 -19 3 -25 11 -6 7 -28 16 -49 19 -31 5 -35
4 -24 -8 8 -7 27 -15 43 -18 l29 -4 -31 -2 c-18 0 -39 7 -52 19 -25 24 -36 26
-28 4 3 -8 2 -12 -4 -9 -27 17 12 95 47 95 8 0 12 4 9 9 -6 10 24 25 32 16 3
-3 0 -11 -6 -17 -7 -7 -12 -20 -12 -29 0 -14 8 -17 35 -15 19 2 36 -1 39 -6 2
-5 3 -3 2 4 -2 7 -9 12 -15 11 -6 -2 -11 2 -11 8 0 7 -9 9 -21 6 -13 -3 -19
-1 -16 6 2 7 12 10 22 9 15 -3 17 -1 7 11 -6 7 -9 17 -5 20 3 4 0 7 -8 7 -16
1 39 28 59 29 8 1 10 -4 6 -11z m84 -39 c14 -22 0 -26 -18 -4 -7 8 -17 15 -23
15 -6 0 -3 -6 7 -13 9 -7 16 -18 14 -24 -2 -6 5 -18 15 -25 15 -12 13 -13 -19
-15 -27 -1 -34 2 -30 13 3 8 1 14 -5 14 -6 0 -8 4 -5 9 4 5 1 11 -6 13 -18 6
23 45 42 40 9 -2 21 -12 28 -23z m-674 -2 c-2 -19 38 -35 44 -18 2 6 12 11 22
11 10 0 21 4 24 9 8 12 66 20 66 9 0 -13 -61 -37 -77 -31 -7 3 -13 0 -13 -6 0
-14 -53 -14 -67 0 -6 6 -9 18 -5 27 4 11 1 14 -12 9 -11 -4 -15 -3 -11 4 10
15 30 5 29 -14z m-395 -60 c1 22 18 40 27 30 3 -3 1 -15 -6 -26 -7 -15 -8 -27
-1 -39 9 -14 10 -13 11 11 0 17 5 27 15 27 8 0 15 5 15 10 0 6 13 4 31 -5 22
-12 29 -21 24 -35 -3 -11 5 -46 18 -78 22 -57 23 -60 6 -81 -24 -29 -29 -27
-29 17 0 27 3 33 10 22 8 -13 10 -13 10 1 0 9 -6 19 -14 22 -9 4 -12 14 -9 26
3 12 -2 27 -11 36 -9 9 -16 12 -16 6 0 -6 -7 -11 -15 -11 -8 0 -15 -4 -15 -10
0 -5 5 -10 11 -10 5 0 7 -4 4 -10 -3 -5 -11 -10 -16 -10 -6 0 -7 5 -3 12 5 8
2 9 -9 5 -10 -4 -17 -2 -17 4 0 7 -11 9 -27 6 -24 -4 -25 -3 -11 7 13 10 15
15 6 24 -17 17 -28 15 -21 -5 4 -11 3 -14 -5 -9 -17 10 -15 36 3 36 10 0 15
11 16 33 l1 32 8 -30 c6 -23 8 -25 9 -8z m-252 1 c-6 -22 -6 -22 8 -4 11 15
15 16 15 5 0 -35 -64 -55 -76 -24 -8 20 13 45 38 45 16 0 19 -5 15 -22z m-92
-18 c3 -5 2 -10 -3 -10 -6 0 -8 -8 -5 -19 5 -20 -22 -37 -32 -21 -4 6 -1 10 4
10 6 0 11 7 11 16 0 14 -3 14 -15 4 -8 -7 -15 -9 -15 -5 0 4 -7 2 -15 -5 -8
-7 -15 -8 -15 -2 0 17 28 34 72 41 4 0 10 -3 13 -9z m1149 -56 c9 -3 13 -11 9
-17 -4 -6 0 -8 11 -4 9 4 14 3 11 -2 -3 -5 -1 -12 5 -16 5 -3 10 -10 10 -15 0
-9 -19 -8 -37 3 -6 4 -18 4 -27 1 -12 -4 -16 0 -16 15 0 13 6 21 18 21 14 0
15 2 2 10 -17 11 -10 13 14 4z m-710 -65 c-2 -78 3 -98 26 -92 12 3 22 -4 31
-26 8 -17 19 -29 24 -27 14 5 36 -42 24 -50 -5 -3 -13 -2 -19 1 -5 3 -10 1
-10 -5 0 -8 -9 -10 -25 -6 -17 4 -31 1 -42 -9 -12 -13 -18 -14 -27 -4 -8 8 -8
13 2 16 23 9 12 29 -15 28 -30 0 -40 24 -14 33 10 3 12 0 7 -13 -6 -15 -4 -16
10 -5 12 11 20 11 34 2 17 -10 18 -9 9 18 -6 15 -17 31 -26 34 -13 5 -14 4 -4
-8 9 -11 9 -16 0 -22 -8 -4 -9 -3 -5 4 5 8 -3 12 -23 12 -16 0 -37 7 -46 16
-21 21 -13 29 13 13 22 -14 52 -6 52 13 0 10 -3 9 -9 -1 -8 -12 -14 -12 -40
-2 -17 7 -36 20 -43 29 -11 13 -10 15 10 10 12 -4 22 -2 22 3 0 5 -11 9 -25 9
-16 0 -25 6 -25 16 0 12 7 15 30 12 18 -3 31 0 34 9 3 7 14 13 25 13 15 0 19
-5 14 -16 -5 -13 -7 -13 -14 -2 -6 9 -9 7 -9 -9 0 -37 17 -26 36 22 9 25 18
45 19 45 1 0 1 -27 -1 -61z m710 -15 c3 -9 13 -14 21 -11 9 4 12 1 8 -9 -3 -9
1 -14 13 -14 11 0 25 -4 33 -9 10 -6 6 -9 -14 -8 -29 2 -109 67 -82 67 8 0 18
-7 21 -16z m-188 -34 c15 -6 38 -21 51 -34 l23 -24 -26 -6 c-26 -7 -57 10 -77
42 -7 11 -13 10 -33 -3 -22 -14 -25 -14 -31 1 -12 31 40 44 93 24z m144 -4 c0
-3 -4 -8 -10 -11 -5 -3 -10 -1 -10 4 0 6 5 11 10 11 6 0 10 -2 10 -4z m-140
-84 c2 -2 -2 -8 -10 -13 -12 -9 -12 -10 2 -5 10 3 28 1 40 -5 l23 -10 -22 5
c-22 4 -33 -8 -15 -16 5 -1 12 -16 15 -33 3 -16 4 -24 0 -16 -4 9 -8 10 -12 2
-5 -8 -13 -7 -27 4 -14 11 -15 14 -3 9 25 -8 33 13 10 25 -23 13 -31 14 -30 4
6 -35 -10 -42 -35 -17 -20 20 -21 38 0 30 10 -4 13 -2 8 6 -5 7 -2 9 7 6 10
-4 15 1 16 14 1 12 -6 22 -18 25 -11 3 -19 14 -19 26 0 19 2 19 32 -9 18 -16
35 -30 38 -32z m-71 -6 c12 -15 6 -19 -51 -36 -21 -7 -26 -5 -21 6 3 9 11 13
18 10 7 -2 15 4 18 15 6 22 20 25 36 5z m-299 -36 c0 -5 -7 -7 -15 -4 -8 4
-15 8 -15 10 0 2 7 4 15 4 8 0 15 -4 15 -10z m574 -5 c-4 -8 -10 -15 -15 -15
-4 0 -6 7 -3 15 4 8 10 15 15 15 4 0 6 -7 3 -15z m-144 -21 c0 -8 -4 -12 -10
-9 -5 3 -10 13 -10 21 0 8 5 12 10 9 6 -3 10 -13 10 -21z m-111 -31 c15 -16
15 -16 -1 -10 -10 3 -20 2 -23 -3 -3 -4 0 -10 6 -12 7 -2 4 -10 -7 -18 -16
-13 -17 -13 -9 0 7 13 6 13 -7 2 -13 -10 -16 -9 -21 7 -4 15 -1 18 12 14 13
-5 14 -3 4 8 -18 19 -16 25 8 26 12 1 29 -5 38 -14z m-89 -33 c12 -8 11 -10
-7 -10 -13 0 -23 5 -23 10 0 13 11 13 30 0z m42 -58 c-7 -2 -12 -8 -12 -13 0
-4 6 -6 14 -3 7 3 16 -1 19 -9 7 -19 -31 -17 -42 2 -10 16 9 42 24 33 5 -3 4
-7 -3 -10z m-478 -31 c3 -5 -1 -14 -9 -21 -21 -17 -19 -31 10 -63 33 -35 43
-35 15 0 l-22 28 24 6 c18 4 27 -1 40 -23 10 -15 23 -28 28 -28 6 0 9 -4 6 -9
-3 -4 1 -17 9 -27 13 -18 14 -17 9 11 -3 25 -2 27 7 12 5 -9 8 -25 5 -35 -6
-18 5 -32 54 -73 14 -11 26 -25 26 -30 1 -5 2 -15 3 -23 0 -8 8 -21 16 -30 9
-9 11 -17 5 -21 -12 -8 -32 3 -25 14 2 5 -7 6 -20 3 -14 -2 -22 -8 -19 -13 3
-5 -5 -9 -18 -9 -19 0 -20 -2 -8 -11 11 -8 8 -9 -14 -4 -23 5 -27 3 -23 -9 9
-23 -21 -8 -35 18 -6 11 -7 18 -4 14 11 -9 67 12 60 23 -3 5 -13 5 -25 -1 -22
-12 -24 -3 -7 35 13 30 18 31 49 7 31 -24 59 -34 59 -22 0 5 -11 12 -24 16
-14 3 -32 14 -41 24 -9 10 -23 16 -31 13 -16 -6 -19 13 -4 22 17 11 11 23 -16
29 -18 5 -24 12 -20 22 4 9 1 14 -5 12 -7 -2 -28 12 -49 32 -38 37 -60 80 -41
80 6 0 11 5 11 11 0 5 -4 7 -10 4 -5 -3 -10 1 -10 9 0 17 35 22 44 7z m976
-34 c0 -5 -4 -5 -10 -2 -5 3 -10 14 -10 23 0 15 2 15 10 2 5 -8 10 -19 10 -23z
m-30 -6 c0 -6 -9 -9 -19 -8 -11 0 -17 5 -15 9 7 11 34 10 34 -1z m-680 -72 c0
-5 6 -7 13 -3 6 4 9 3 4 -1 -4 -5 3 -20 15 -34 13 -14 15 -20 6 -12 -9 7 -21
10 -27 7 -5 -3 -12 2 -16 12 -13 28 -14 42 -4 42 5 0 9 -5 9 -11z m704 -105
c4 -10 1 -14 -6 -12 -15 5 -23 28 -10 28 5 0 13 -7 16 -16z m-490 -9 c3 -8 1
-15 -4 -15 -6 0 -10 7 -10 15 0 8 2 15 4 15 2 0 6 -7 10 -15z m496 -19 c0 -2
-7 -7 -16 -10 -8 -3 -12 -2 -9 4 6 10 25 14 25 6z m-255 -46 c3 -5 1 -10 -4
-10 -6 0 -11 5 -11 10 0 6 2 10 4 10 3 0 8 -4 11 -10z m-689 -149 c-9 -12 -7
-13 7 -8 14 5 20 2 24 -14 3 -11 9 -16 12 -10 10 15 82 21 87 6 3 -7 15 -10
28 -8 13 3 28 -2 36 -12 11 -14 10 -17 -8 -22 -12 -3 -19 -9 -16 -14 3 -5 -1
-6 -9 -3 -8 3 -18 1 -22 -5 -3 -6 -1 -11 4 -11 6 0 11 -7 11 -15 0 -22 31 -15
56 14 20 22 52 22 38 0 -12 -20 27 -49 62 -46 27 2 30 5 21 17 -6 8 -2 7 9 -3
14 -14 16 -20 6 -26 -10 -6 -8 -14 8 -34 17 -22 18 -27 6 -27 -8 0 -18 5 -21
10 -3 6 -14 10 -23 10 -14 0 -14 -2 -3 -9 10 -6 3 -9 -22 -9 -20 0 -41 6 -47
13 -6 8 -18 11 -26 8 -19 -7 -18 -23 1 -23 11 0 15 -8 12 -25 -1 -13 -6 -27
-9 -30 -7 -7 -44 10 -70 32 -16 14 -16 17 5 34 12 10 18 18 13 19 -5 0 -3 7 4
15 10 12 7 13 -19 5 -17 -5 -31 -6 -31 -2 0 4 -5 0 -10 -8 -9 -13 -11 -13 -20
0 -9 14 -15 7 -10 -15 1 -5 -4 -5 -11 2 -6 6 -18 9 -27 6 -11 -5 -13 -3 -7 7
5 9 4 11 -3 6 -6 -4 -9 -21 -7 -39 3 -18 3 -26 -1 -19 -3 6 -12 12 -20 12 -9
0 -12 -4 -9 -10 13 -20 -14 -9 -29 12 -11 16 -12 24 -4 29 17 11 2 40 -18 32
-12 -4 -15 -3 -10 5 4 7 2 20 -4 29 -10 16 -11 15 -7 -5 3 -12 -1 -28 -8 -36
-9 -9 -10 -17 -4 -23 6 -6 4 -10 -6 -10 -8 0 -15 5 -15 11 0 8 -2 8 -8 0 -5
-7 -15 -4 -30 11 -21 19 -21 23 -8 35 11 8 16 9 16 1 0 -6 5 -11 11 -11 6 0 9
6 6 14 -3 8 1 20 9 27 8 7 13 18 10 26 -3 7 -1 13 4 13 6 0 10 -6 11 -12 0 -9
2 -9 5 -2 3 7 19 10 42 7 32 -5 35 -4 23 11 -7 9 -9 16 -4 16 5 0 18 7 29 15
13 10 14 13 3 10 -9 -3 -22 1 -29 10 -9 11 -16 12 -25 5 -17 -14 -27 11 -13
31 7 11 11 11 15 2 8 -22 21 -14 15 9 -5 21 -5 21 15 2 15 -14 17 -22 9 -33z
m-66 -32 c0 -5 -7 -9 -15 -9 -15 0 -20 12 -9 23 8 8 24 -1 24 -14z m11 -22
c-10 -9 -11 -8 -5 6 3 10 9 15 12 12 3 -3 0 -11 -7 -18z m299 -13 c0 -3 -7 -1
-15 6 -8 7 -15 17 -15 22 0 5 7 3 15 -6 8 -8 15 -18 15 -22z m290 -65 c0 -6
-4 -7 -10 -4 -5 3 -10 11 -10 16 0 6 5 7 10 4 6 -3 10 -11 10 -16z m-20 -25
c0 -8 5 -14 10 -14 6 0 10 5 10 10 0 6 5 10 10 10 6 0 10 -6 9 -12 -1 -7 -1
-30 0 -51 1 -29 6 -40 23 -46 18 -6 19 -9 5 -14 -10 -4 -17 -2 -17 3 0 5 -12
16 -27 24 -24 12 -26 15 -10 21 9 4 17 11 17 16 0 4 -6 6 -14 3 -17 -7 -23 3
-31 45 -4 21 -2 30 5 26 5 -3 10 -13 10 -21z m190 0 c0 -17 -22 -14 -28 4 -2
7 3 12 12 12 9 0 16 -7 16 -16z m-857 -50 c-6 -17 -19 -18 -28 -3 -4 6 -13 8
-21 5 -19 -7 -18 4 3 24 15 14 20 14 34 2 10 -8 15 -21 12 -28z m210 -9 c4 -8
2 -17 -3 -20 -6 -4 -10 3 -10 14 0 25 6 27 13 6z m341 0 c3 -8 1 -15 -4 -15
-6 0 -10 7 -10 15 0 8 2 15 4 15 2 0 6 -7 10 -15z m31 -3 c-3 -3 -11 0 -18 7
-9 10 -8 11 6 5 10 -3 15 -9 12 -12z m-632 -45 c-3 -5 0 -13 7 -17 7 -5 2 -7
-14 -7 -19 0 -26 5 -26 18 0 11 -5 19 -11 19 -5 0 -7 5 -4 10 4 6 11 8 16 5 5
-3 6 2 3 12 -4 12 0 10 14 -7 11 -13 18 -28 15 -33z m153 38 c-8 -23 17 -35
71 -35 45 0 53 -3 53 -18 0 -28 -11 -34 -27 -14 -13 15 -14 15 -9 0 4 -13 -1
-16 -22 -13 -15 2 -30 4 -34 4 -5 1 -8 7 -8 14 0 7 -9 18 -20 24 -15 10 -18
10 -14 0 6 -17 -35 -55 -44 -41 -4 6 -20 14 -35 18 -16 4 -31 16 -37 30 -5 13
-12 26 -17 28 -4 3 -2 3 5 1 8 -1 22 -3 33 -3 10 0 25 -13 34 -30 9 -16 21
-30 28 -30 15 0 20 37 6 45 -19 12 -8 33 17 33 16 0 23 -5 20 -13z m518 8 c-5
-5 -12 -12 -16 -18 -4 -6 -8 -2 -8 8 0 9 7 17 17 17 9 0 12 -3 7 -7z m-558
-50 c-4 -4 -11 -1 -16 7 -16 25 -11 35 7 17 9 -9 13 -20 9 -24z m367 10 c-18
-7 -16 -23 2 -23 8 0 15 5 15 10 0 19 16 10 33 -20 14 -22 25 -30 45 -29 15 1
20 3 11 6 -10 2 -19 13 -22 24 -5 20 7 26 18 9 3 -5 15 -10 26 -10 11 0 17 5
14 10 -3 6 -1 10 5 10 6 0 19 -13 28 -30 9 -16 21 -30 25 -30 5 0 5 5 2 10 -3
6 -1 10 4 10 6 0 11 -8 12 -17 0 -12 2 -13 6 -5 4 9 9 10 18 2 10 -8 14 -4 19
16 4 14 5 29 1 32 -3 3 -5 -2 -5 -11 0 -23 -30 -21 -60 4 -16 14 -19 19 -7 15
9 -3 17 -1 17 5 0 6 9 1 20 -12 18 -22 26 -17 21 14 -2 12 8 8 29 -13 17 -17
19 -26 12 -53 -5 -18 -7 -38 -5 -44 3 -7 -3 -13 -12 -13 -15 0 -15 -2 -1 -22
20 -28 21 -44 1 -28 -8 7 -15 19 -15 26 0 8 -8 14 -17 14 -15 0 -16 2 -3 10 8
5 11 10 5 10 -5 0 -16 -4 -23 -9 -20 -12 14 -78 45 -85 12 -4 24 -14 24 -24 1
-9 3 -32 5 -50 2 -28 0 -32 -17 -27 -10 4 -19 2 -19 -4 0 -5 -12 -4 -27 4 -32
16 -86 7 -91 -14 -2 -8 3 -11 12 -8 8 3 16 1 18 -5 3 -7 10 -8 17 -4 11 7 11
10 0 17 -11 7 -11 9 2 9 10 0 19 -10 21 -25 4 -19 1 -25 -10 -23 -8 2 -17 -2
-19 -8 -2 -7 10 -14 26 -16 16 -2 28 -1 25 4 -3 4 0 8 6 8 6 0 13 -7 16 -15 4
-8 10 -15 15 -15 4 0 5 7 2 17 -4 11 -3 14 5 9 17 -10 15 0 -4 18 -12 13 -12
16 -2 16 20 0 38 -21 38 -44 1 -49 70 -162 70 -115 0 7 7 8 18 4 9 -4 23 -8
30 -9 7 -1 18 -8 25 -15 9 -10 8 -11 -8 -6 -19 6 -19 6 -2 -5 10 -6 25 -9 32
-6 10 4 14 -1 12 -17 -2 -18 3 -22 30 -23 38 -1 77 -40 59 -59 -6 -7 -19 -10
-30 -7 -13 3 -17 1 -12 -6 4 -7 2 -12 -3 -12 -6 0 -11 4 -11 10 0 5 -6 9 -12
7 -8 -1 -12 6 -10 17 3 14 -1 17 -12 13 -11 -5 -16 0 -16 13 0 13 -7 20 -19
20 -11 0 -23 5 -26 10 -4 6 -10 8 -14 5 -5 -2 -17 2 -27 10 -18 14 -18 14 4
15 21 0 28 10 16 23 -4 3 -13 0 -21 -8 -8 -8 -23 -15 -34 -15 -23 0 -24 -6 -5
-26 19 -19 27 -18 19 3 -4 11 -3 14 6 9 7 -5 10 -15 7 -23 -3 -8 -1 -11 4 -8
6 3 16 3 23 -2 6 -4 15 -8 19 -8 5 0 33 -28 63 -63 30 -35 55 -60 55 -55 0 4
7 -1 15 -11 8 -11 15 -16 15 -12 0 4 5 4 11 0 8 -5 8 -9 -1 -14 -9 -6 -7 -13
9 -29 11 -11 17 -21 11 -21 -5 0 -7 -6 -4 -14 4 -10 -2 -12 -23 -8 -25 5 -27
4 -14 -12 9 -11 17 -13 21 -6 4 7 12 6 25 -3 17 -13 17 -14 -3 -19 -14 -4 -29
3 -48 23 -15 15 -30 26 -34 24 -5 -3 -10 1 -13 9 -5 13 10 25 41 32 6 1 12 -2
12 -7 0 -5 5 -9 10 -9 6 0 4 14 -5 31 -14 27 -18 29 -28 15 -9 -11 -16 -13
-27 -6 -11 7 -11 10 -2 10 7 0 11 4 7 9 -3 6 -15 8 -27 6 -26 -5 -36 -15 -17
-16 8 0 6 -4 -6 -9 -19 -8 -19 -8 5 -18 14 -6 18 -11 10 -11 -8 0 -26 6 -39
13 -20 11 -21 14 -7 19 10 4 14 11 11 17 -3 5 2 11 12 12 10 0 23 2 30 2 6 1
15 5 20 10 4 5 -7 6 -27 2 -19 -4 -43 -7 -53 -7 -15 0 -16 -3 -7 -15 10 -11 9
-14 -5 -14 -10 0 -16 3 -12 6 3 4 0 19 -9 35 -8 17 -10 29 -4 29 5 0 10 -4 10
-9 0 -5 11 -8 24 -7 26 1 25 15 -2 32 -11 7 -26 8 -41 3 -20 -8 -21 -12 -10
-25 17 -21 -6 -36 -35 -23 -12 5 -33 14 -48 20 -16 6 -25 15 -22 20 8 14 62
11 67 -3 3 -8 6 -5 6 5 1 10 5 15 11 12 5 -3 7 0 4 8 -2 7 -10 14 -17 14 -7 0
-20 4 -29 8 -10 4 -18 3 -18 -3 0 -5 -11 -13 -25 -16 -16 -4 -23 -11 -19 -18
4 -6 -9 2 -29 18 -21 16 -32 31 -24 33 6 2 18 10 25 19 9 12 15 13 23 5 6 -6
18 -9 25 -6 8 3 14 0 14 -6 0 -6 4 -11 10 -11 5 0 7 6 4 14 -10 26 35 6 61
-28 14 -17 23 -23 19 -13 -4 12 -1 17 12 17 24 0 -54 40 -83 42 -29 3 -60 55
-43 71 10 9 11 9 6 -1 -11 -19 13 -43 33 -33 9 5 22 6 29 3 11 -3 12 0 3 17
-12 21 -33 26 -100 23 -44 -3 -49 -8 -26 -30 18 -16 18 -16 4 2 -11 16 -8 16
18 -4 31 -22 57 -60 31 -43 -7 4 -20 8 -29 8 -9 1 -22 7 -30 14 -71 61 -90 82
-84 91 3 5 1 10 -6 10 -7 0 -9 3 -6 7 8 8 -23 32 -42 33 -7 0 -11 -6 -8 -13 3
-8 -1 -14 -8 -14 -10 0 -11 5 -4 19 8 15 6 17 -13 15 -15 -1 -22 3 -20 12 2 8
-3 18 -10 22 -9 6 -10 9 -1 9 7 0 16 -6 20 -14 8 -14 25 -20 51 -17 7 0 10 6
6 12 -3 6 -2 14 4 18 6 3 0 11 -15 18 -23 11 -25 10 -20 -9 5 -19 4 -19 -20 3
-15 13 -23 19 -20 13 5 -8 -4 -12 -26 -12 -27 0 -33 4 -34 22 -2 18 -1 19 8 4
12 -21 35 -14 42 13 4 13 0 19 -11 20 -10 0 -5 6 13 14 l30 14 -27 1 c-16 0
-28 4 -28 8 0 9 34 7 67 -3 12 -4 26 -7 30 -8 4 0 13 -7 20 -16 11 -14 12 -11
13 17 0 27 4 32 23 32 13 0 28 -5 35 -12 17 -17 15 -2 -4 39 -10 20 -22 32
-30 29 -7 -3 -16 -1 -19 4 -4 6 4 10 16 10 12 0 19 3 15 8 -11 10 -50 9 -58
-3 -9 -13 -15 -5 -20 25 -4 29 -52 52 -80 38 -24 -12 -23 3 1 24 14 12 21 13
25 5 3 -8 5 -8 5 -1 1 6 -8 19 -19 29 -27 24 -25 45 3 44 12 0 16 -3 10 -6z
m-525 -22 c3 -10 0 -12 -12 -8 -9 4 -16 2 -16 -3 0 -5 -7 -7 -15 -4 -11 5 -12
9 -2 20 15 17 39 14 45 -5z m372 9 c0 -5 -5 -10 -11 -10 -5 0 -7 5 -4 10 3 6
8 10 11 10 2 0 4 -4 4 -10z m25 -40 c7 -6 22 -3 39 5 25 14 27 13 16 0 -7 -8
-19 -15 -26 -15 -8 0 -14 -4 -14 -10 0 -5 -7 -7 -15 -4 -24 10 -17 -12 15 -47
27 -30 29 -31 23 -8 -5 23 -5 24 10 4 16 -19 16 -19 17 -1 0 16 2 17 17 5 13
-11 15 -11 9 -1 -6 10 1 13 30 10 32 -2 42 -8 54 -34 8 -17 20 -29 26 -27 6 2
14 -3 18 -12 4 -11 1 -15 -12 -13 -9 2 -21 8 -25 13 -5 6 -6 -3 -2 -19 l6 -29
-28 17 c-15 10 -36 27 -45 38 -10 11 -18 16 -18 10 0 -6 6 -17 14 -25 9 -9 11
-18 5 -28 -8 -12 -12 -11 -24 5 -8 10 -16 22 -17 25 -7 14 -68 39 -85 35 -11
-3 -27 3 -37 15 -15 16 -16 21 -5 21 11 0 11 2 -1 10 -13 8 -11 11 8 16 12 4
22 10 22 15 0 12 -17 11 -25 -1 -4 -7 -14 -6 -28 2 -20 10 -21 10 -8 -5 15
-19 8 -22 -20 -7 -13 8 -19 7 -19 0 0 -6 -4 -9 -9 -6 -5 3 -11 0 -14 -8 -3 -8
1 -17 9 -20 8 -3 14 -1 14 5 0 6 10 9 23 7 14 -2 22 -10 22 -23 0 -12 6 -19
16 -17 9 1 28 -11 42 -28 25 -27 26 -35 5 -31 -5 0 -8 -4 -8 -10 0 -6 -7 -4
-15 5 -18 17 -20 30 -4 20 7 -4 10 -1 7 7 -2 7 -18 16 -35 20 -26 5 -30 3 -25
-13 3 -14 0 -17 -12 -12 -9 3 -16 10 -16 14 0 4 -10 10 -21 13 -15 4 -20 11
-15 22 3 10 -6 28 -25 47 -25 27 -32 30 -39 18 -6 -8 -10 -18 -10 -22 0 -17
-31 6 -44 33 -16 33 -3 40 16 9 7 -11 16 -20 21 -20 4 0 6 3 3 8 -2 4 7 13 20
19 20 9 24 9 22 -2 -2 -8 2 -13 7 -12 6 1 9 6 7 10 -1 5 3 5 10 1 7 -5 36 -8
64 -9 43 0 50 2 46 17 -3 14 1 16 24 12 16 -3 33 -9 39 -14z m-371 -16 c22 -3
44 -7 48 -10 4 -3 8 0 8 7 0 8 5 8 16 -2 10 -8 12 -15 5 -17 -6 -2 -11 -10
-11 -18 0 -8 -7 -14 -15 -14 -8 0 -15 -5 -15 -12 0 -6 -8 -4 -19 6 -11 10 -25
15 -30 11 -6 -3 -11 -1 -11 5 0 6 -12 22 -27 36 -22 21 -24 24 -8 19 11 -4 38
-9 59 -11z m-71 -14 c10 0 16 -4 12 -9 -6 -11 35 -42 47 -35 4 3 8 0 8 -6 0
-7 -9 -14 -20 -17 -11 -3 -20 -8 -21 -12 0 -3 -2 -16 -5 -28 -2 -13 0 -23 6
-23 5 0 7 -7 4 -15 -4 -8 -1 -15 5 -15 6 0 8 -7 5 -15 -7 -18 7 -20 24 -3 9 9
12 9 12 -1 0 -7 5 -9 10 -6 6 4 8 11 5 16 -4 5 0 9 7 9 10 0 9 3 -2 11 -11 8
-8 9 13 4 19 -4 26 -2 22 5 -3 5 -1 10 5 10 6 0 13 -7 16 -15 9 -22 24 -18 24
5 0 12 -12 26 -31 36 -29 14 -31 14 -26 0 5 -12 0 -14 -26 -10 -25 3 -28 2
-12 -5 19 -9 19 -10 1 -10 -13 -1 -16 -6 -11 -18 5 -14 4 -15 -6 -6 -7 7 -14
26 -15 42 -2 28 0 29 59 35 41 4 65 2 75 -6 13 -11 14 -9 8 15 -4 19 -3 26 4
22 5 -3 14 4 18 16 8 22 8 22 30 -5 11 -15 24 -47 28 -72 6 -44 17 -56 27 -30
3 7 0 19 -6 25 -6 6 -7 11 -1 11 12 0 34 -21 34 -33 0 -4 -4 -5 -10 -2 -5 3
-10 1 -10 -5 0 -7 6 -10 14 -7 8 3 20 -1 26 -9 11 -12 5 -14 -39 -14 -32 0
-50 -4 -46 -10 3 -5 2 -10 -4 -10 -5 0 -13 5 -16 11 -4 6 -13 8 -21 5 -8 -3
-14 1 -14 9 0 9 6 12 15 9 8 -4 15 -2 15 4 0 5 -7 13 -16 16 -21 8 -34 8 -33
-1 4 -24 -3 -43 -15 -43 -8 0 -17 -4 -20 -8 -2 -4 7 -8 21 -7 14 0 28 -6 30
-12 3 -8 -4 -13 -15 -13 -11 0 -25 -7 -32 -15 -12 -14 -15 -13 -35 5 -25 23
-47 26 -39 5 4 -8 12 -15 18 -15 7 0 17 -5 23 -11 9 -9 6 -17 -13 -32 -24 -19
-26 -19 -42 -2 -9 10 -12 15 -7 12 6 -3 17 -2 25 4 12 7 11 9 -5 10 -43 3 -70
-4 -78 -17 -5 -9 -16 -12 -28 -9 -11 4 -19 2 -19 -5 0 -6 5 -8 10 -5 6 3 10
-2 10 -11 0 -16 -1 -16 -18 -1 -23 21 -66 22 -84 3 -11 -10 -19 -11 -34 -4
-14 8 -16 8 -8 -1 14 -15 68 -26 59 -11 -3 5 -2 10 4 10 5 0 15 -8 20 -17 9
-15 12 -16 20 -4 7 12 13 12 24 3 8 -7 27 -10 45 -6 l31 6 -22 20 -22 20 25
-6 c14 -3 33 -6 43 -6 9 0 17 -4 17 -10 0 -5 -7 -10 -15 -10 -13 0 -13 -4 -3
-22 7 -13 17 -26 23 -30 5 -4 6 -10 2 -14 -3 -4 -13 -2 -20 4 -10 9 -17 7 -27
-8 -10 -14 -17 -16 -27 -8 -16 13 -17 38 -2 38 6 0 9 -7 6 -14 -4 -10 -1 -13
9 -9 13 5 12 8 -2 24 -19 21 -34 11 -34 -25 0 -12 -5 -16 -15 -12 -8 3 -22 9
-30 12 -8 3 -15 1 -15 -5 0 -6 7 -11 15 -11 8 0 15 -4 15 -10 0 -5 7 -10 16
-10 8 0 13 -4 10 -8 -3 -5 -31 4 -63 19 -63 31 -89 37 -59 14 11 -8 28 -15 38
-15 10 0 18 -4 18 -10 0 -5 7 -10 15 -10 8 0 15 -4 15 -8 0 -13 -47 -7 -66 9
-9 7 -22 14 -28 15 -6 0 -17 2 -25 2 -11 2 -8 9 9 27 18 19 27 22 41 14 11 -5
19 -6 19 -1 0 9 -45 35 -65 38 -28 3 -65 25 -65 38 0 8 -3 21 -6 30 -3 9 -1
16 5 16 6 0 11 -11 11 -24 0 -29 12 -39 35 -30 10 4 14 13 11 23 -5 12 -3 12
8 -3 8 -10 20 -16 26 -14 18 6 -22 46 -50 50 -31 4 -38 28 -11 35 15 4 18 9
12 17 -6 7 -6 18 -1 26 7 11 11 11 24 1 8 -7 19 -10 25 -7 5 3 11 -1 15 -9 3
-8 12 -15 21 -15 8 0 15 -4 15 -8 0 -12 41 -12 62 -1 14 8 18 6 18 -6 0 -9 -4
-13 -10 -10 -6 4 -7 -1 -3 -11 4 -12 8 -14 11 -6 3 10 7 10 18 1 10 -8 14 -8
14 0 0 6 -4 11 -10 11 -5 0 -10 9 -10 20 0 11 -4 20 -10 20 -5 0 -10 7 -10 15
0 18 5 18 31 5 27 -15 25 5 -3 24 -29 20 -39 20 -31 0 5 -14 3 -15 -15 -5 -23
12 -29 36 -12 46 6 4 19 1 28 -6 9 -8 6 -1 -7 14 -14 15 -32 27 -42 27 -9 0
-19 7 -23 15 -8 23 9 18 44 -11 17 -15 34 -23 38 -19 4 4 -4 16 -18 28 -17 14
-19 18 -7 14 10 -4 25 -7 32 -7 7 0 15 -8 17 -17 3 -17 4 -17 11 0 8 21 -31
41 -76 38 -17 -1 -26 3 -22 9 3 5 15 10 25 10 14 0 18 5 13 18 -5 14 -3 15 8
5 7 -7 21 -13 32 -13z m512 -10 c3 -5 2 -10 -4 -10 -5 0 -13 5 -16 10 -3 6 -2
10 4 10 5 0 13 -4 16 -10z m-600 -93 c8 -12 16 -34 18 -47 3 -15 11 -24 20
-24 9 1 18 -5 21 -13 8 -20 -75 -9 -91 14 -7 9 -16 14 -19 10 -9 -9 -36 21
-29 33 3 5 13 10 22 10 9 0 13 3 10 7 -8 7 11 33 24 33 5 0 15 -10 24 -23z
m30 13 c3 -5 1 -10 -4 -10 -6 0 -11 5 -11 10 0 6 2 10 4 10 3 0 8 -4 11 -10z
m885 -23 c0 -5 -4 -5 -10 -2 -5 3 -10 14 -10 23 0 15 2 15 10 2 5 -8 10 -19
10 -23z m-364 8 c9 -8 24 -15 35 -15 20 0 26 -15 9 -25 -5 -3 -10 -1 -10 4 0
6 -6 11 -13 11 -8 0 -22 9 -32 20 -21 23 -11 27 11 5z m244 -24 c0 -4 -6 -8
-12 -9 -7 0 -22 -2 -32 -4 -10 -2 -21 2 -23 8 -2 7 5 10 22 7 15 -3 25 -1 25
6 0 7 5 9 10 6 6 -3 10 -10 10 -14z m-321 -5 c9 -11 9 -15 -1 -20 -7 -3 4 -3
26 0 35 5 38 3 34 -14 -4 -14 2 -24 18 -33 15 -8 21 -16 15 -22 -11 -11 -34 1
-26 14 4 5 -5 9 -19 9 -13 0 -31 7 -40 15 -8 9 -17 11 -21 6 -3 -6 3 -14 12
-20 16 -9 16 -10 1 -11 -22 0 -32 18 -19 33 6 8 6 18 1 27 -19 30 -3 43 19 16z
m121 -73 c0 -3 -9 2 -20 12 -11 10 -20 22 -20 27 0 4 9 -1 20 -12 11 -11 20
-23 20 -27z m-163 21 c-3 -3 -12 -4 -19 -1 -8 3 -5 6 6 6 11 1 17 -2 13 -5z
m121 -59 c20 -15 21 -15 15 1 -4 11 -3 15 5 10 11 -6 13 -46 2 -46 -3 1 -18
12 -35 25 -33 27 -23 34 13 10z m66 -61 c3 -8 2 -12 -4 -9 -6 3 -10 10 -10 16
0 14 7 11 14 -7z m-714 -49 c0 -12 -29 -3 -34 10 -4 13 -2 14 14 5 11 -6 20
-13 20 -15z m755 15 c3 -6 -1 -7 -9 -4 -18 7 -21 14 -7 14 6 0 13 -4 16 -10z
m-715 -15 c0 -2 -6 -5 -13 -8 -8 -3 -14 1 -14 8 0 7 6 11 14 8 7 -3 13 -6 13
-8z m800 -35 c4 -8 12 -26 19 -38 19 -37 8 -35 -29 3 -29 30 -31 35 -14 36 18
0 18 1 -1 10 -18 8 -18 9 -1 6 10 -1 22 -9 26 -17z m-544 -35 c9 -8 12 -15 7
-15 -4 0 0 -7 10 -14 9 -7 16 -24 15 -37 -1 -13 2 -40 5 -59 6 -32 6 -33 -4
-10 -7 15 -13 20 -16 12 -3 -6 -9 -10 -14 -6 -15 9 -10 24 7 24 14 0 14 3 4
15 -15 18 -34 20 -24 3 4 -7 4 -10 -1 -6 -4 4 -17 1 -28 -7 -16 -11 -24 -12
-36 -2 -12 10 -14 9 -7 -7 6 -19 6 -19 -12 -3 -29 27 -23 45 15 45 18 0 30 -4
27 -9 -3 -5 2 -6 10 -3 12 5 13 9 3 25 -7 11 -13 15 -15 9 -5 -13 -55 -13 -69
1 -7 7 -9 4 -6 -14 3 -17 0 -24 -11 -24 -21 0 -73 44 -63 54 5 4 13 0 18 -10
12 -21 44 -23 36 -3 -9 23 72 38 121 22 24 -8 29 3 10 22 -7 7 -9 12 -4 12 4
0 14 -7 22 -15z m628 -58 c-8 -4 -11 -14 -7 -20 3 -7 -4 -3 -18 8 -13 11 -26
22 -29 24 -3 2 9 1 25 -3 24 -5 26 -4 13 4 -10 6 -23 20 -29 32 -9 17 -5 16
25 -8 28 -23 32 -30 20 -37z m-866 30 c2 -9 -2 -17 -8 -17 -6 0 -9 4 -5 9 3 6
-3 15 -12 21 -17 10 -16 11 2 8 11 -2 21 -11 23 -21z m1002 13 c0 -10 -26 -20
-34 -13 -11 12 -6 19 14 20 11 1 20 -2 20 -7z m-856 -123 c3 4 6 1 6 -5 0 -7
5 -12 10 -12 6 0 9 3 8 8 -2 4 2 8 7 9 18 4 85 -9 85 -17 0 -4 18 -10 40 -14
44 -7 73 -41 49 -57 -11 -7 -10 -9 5 -9 12 0 16 -5 12 -15 -3 -8 0 -15 6 -15
9 0 9 -3 0 -12 -8 -8 -8 -15 -1 -24 15 -19 -27 -40 -47 -23 -19 16 -18 0 3
-23 9 -10 13 -21 9 -25 -4 -5 -12 0 -17 9 -10 17 -39 14 -39 -4 0 -6 7 -7 16
-4 10 4 14 2 11 -6 -2 -7 -9 -12 -15 -11 -6 2 -9 -4 -6 -12 4 -8 10 -12 15 -9
6 3 16 0 24 -6 12 -10 15 -9 15 3 0 10 13 18 35 23 27 5 33 9 25 19 -5 6 -7
15 -3 18 3 4 -1 7 -10 7 -10 0 -17 4 -17 10 0 5 14 7 33 3 30 -6 31 -5 17 12
-14 17 -13 17 5 7 19 -10 55 -46 85 -86 14 -18 13 -18 -9 -11 -20 6 -23 4 -18
-9 9 -22 3 -20 -27 8 -15 13 -26 31 -26 40 0 9 -4 16 -9 16 -15 0 1 -51 19
-63 10 -6 16 -17 13 -24 -3 -7 2 -13 10 -13 9 0 15 -8 14 -19 -1 -19 -18 -18
-44 2 -9 6 -13 6 -13 -2 0 -6 5 -11 11 -11 5 0 7 -5 3 -12 -5 -8 -2 -9 9 -5 9
3 19 2 22 -3 3 -5 -2 -10 -12 -12 -23 -4 -66 34 -50 44 21 14 -80 12 -117 -1
-20 -8 -20 -8 2 -20 18 -10 21 -9 16 4 -4 8 -2 15 4 15 5 0 12 -7 16 -15 3 -8
15 -15 26 -15 14 0 19 4 14 12 -8 13 12 3 39 -20 19 -17 24 -37 5 -26 -8 5 -9
2 -5 -9 9 -25 -41 -48 -88 -40 -28 4 -36 3 -31 -5 4 -7 2 -12 -4 -12 -7 0 -10
6 -7 14 3 8 -2 20 -10 28 -15 11 -16 11 -10 -5 6 -15 4 -16 -14 -7 -11 6 -16
16 -13 22 4 6 3 8 -4 4 -6 -3 -13 -2 -17 4 -8 13 19 40 41 40 10 0 15 -3 11
-6 -3 -3 5 -16 18 -29 14 -12 21 -26 17 -30 -4 -5 -1 -5 6 -1 7 4 9 12 6 18
-5 7 2 9 22 4 25 -5 26 -5 9 5 -11 7 -28 19 -38 27 -16 15 -17 14 -11 -1 3 -9
3 -17 0 -17 -4 0 -11 12 -16 26 -6 14 -14 23 -19 19 -6 -3 -8 12 -6 36 2 23
10 46 17 50 14 9 5 12 -29 9 -13 -1 -23 3 -23 9 0 6 -7 11 -15 11 -8 0 -15 5
-15 10 0 6 5 10 11 10 5 0 7 5 4 11 -4 6 -12 8 -19 6 -6 -2 -20 5 -31 16 -20
20 -20 20 3 8 13 -7 30 -10 38 -7 8 3 14 -1 14 -8 0 -7 9 -23 20 -36 16 -18
20 -20 20 -7 0 10 -4 17 -10 17 -5 0 -10 8 -10 18 0 47 -58 80 -88 50 -9 -9
-12 -7 -12 11 0 12 -4 20 -10 16 -5 -3 -18 12 -29 35 -10 22 -18 40 -16 40 2
0 10 3 19 6 11 4 16 0 16 -12 0 -16 2 -16 10 -4 7 12 12 12 29 -5 31 -28 36
-11 6 19 -14 15 -31 23 -37 20 -7 -4 -8 -2 -4 4 4 7 2 12 -3 12 -6 0 -11 4
-11 10 0 6 9 6 24 0 13 -5 27 -6 30 -3z m-69 -20 c4 5 5 2 1 -4 -11 -19 -24
-16 -37 10 -12 21 -11 21 8 4 11 -9 23 -14 28 -10z m1214 7 c-12 -15 -11 -16
9 -10 16 5 24 3 28 -9 9 -21 -5 -33 -16 -15 -8 12 -10 13 -10 1 0 -11 -5 -10
-20 4 -11 10 -20 13 -20 8 0 -6 7 -16 15 -23 8 -7 15 -18 15 -24 0 -23 22 -36
42 -25 10 5 18 14 18 20 0 6 -7 6 -20 -1 -11 -6 -20 -9 -20 -6 0 2 -3 13 -6
23 -6 14 -4 16 6 6 13 -12 43 -6 35 7 -5 9 46 -2 87 -18 15 -6 34 -25 43 -41
15 -30 15 -31 -11 -37 -15 -4 -30 -2 -37 6 -9 10 -9 11 2 5 9 -5 12 -3 9 6 -3
8 -11 14 -19 14 -8 1 -13 6 -12 13 2 6 -4 9 -12 6 -21 -9 -20 -11 23 -59 11
-13 10 -15 -8 -15 -12 0 -19 3 -17 8 3 4 -6 8 -19 8 -13 1 -24 -2 -24 -7 0 -5
5 -9 12 -9 18 0 77 -43 82 -60 2 -9 4 -6 5 6 1 23 24 48 34 37 4 -3 7 -1 7 6
0 7 -9 9 -25 5 -33 -8 -32 4 2 17 21 8 30 6 42 -7 12 -12 13 -18 4 -21 -21 -7
-15 -22 6 -16 10 3 22 0 25 -6 4 -6 0 -11 -9 -11 -9 0 -13 -5 -10 -10 9 -15
-23 -24 -39 -11 -10 9 -15 8 -20 -4 -3 -9 -2 -14 3 -10 5 3 16 -2 24 -10 17
-16 32 -20 23 -6 -3 5 7 14 23 19 26 9 28 8 24 -9 -3 -12 -11 -18 -19 -15 -8
3 -14 3 -14 0 0 -2 11 -9 25 -14 26 -10 34 -30 13 -30 -7 0 -5 -5 5 -12 17
-13 27 -81 14 -94 -4 -4 -7 1 -7 12 0 12 -14 26 -38 37 l-37 18 25 -20 c14
-12 29 -21 33 -21 12 0 -15 -25 -35 -32 -15 -6 -30 10 -32 37 -1 6 -6 10 -13
10 -6 0 -15 3 -19 8 -4 4 -15 7 -24 7 -10 0 -25 11 -36 24 -10 14 -22 22 -26
20 -5 -3 -22 6 -39 20 -17 15 -36 23 -41 20 -7 -4 -8 -2 -4 4 4 7 1 12 -8 12
-8 0 -21 10 -27 23 -11 20 -11 21 4 8 14 -11 17 -11 18 0 0 10 2 11 6 1 2 -6
9 -10 14 -6 5 3 9 -2 9 -10 0 -17 17 -21 38 -8 15 10 5 43 -11 36 -13 -5 -43
53 -33 63 3 3 0 13 -7 21 -10 13 -9 15 5 9 13 -4 11 2 -8 31 -25 37 -43 58
-30 35 12 -22 -19 -4 -33 19 -11 18 -11 20 3 15 11 -4 13 -2 9 10 -4 10 -2 14
4 10 5 -4 19 0 29 8 25 19 29 19 13 -1z m-214 -74 c3 -5 1 -10 -4 -10 -6 0
-11 5 -11 10 0 6 2 10 4 10 3 0 8 -4 11 -10z m360 -110 c3 -6 -1 -7 -9 -4 -18
7 -21 14 -7 14 6 0 13 -4 16 -10z m-1071 -25 c3 -8 1 -15 -3 -15 -5 0 -11 7
-15 15 -3 8 -1 15 3 15 5 0 11 -7 15 -15z m166 -87 c0 -13 -23 -5 -28 10 -2 7
2 10 12 6 9 -3 16 -11 16 -16z m-10 -30 c0 -6 -6 -5 -15 2 -8 7 -15 14 -15 16
0 2 7 1 15 -2 8 -4 15 -11 15 -16z m12 -30 c-6 -6 -15 -8 -19 -4 -4 4 -1 11 7
16 19 12 27 3 12 -12z m-32 -17 c0 -5 -11 -11 -25 -13 -14 -3 -25 -2 -25 3 0
4 10 10 23 12 12 2 23 5 25 6 1 0 2 -3 2 -8z m955 -19 c-3 -3 -11 0 -18 7 -9
10 -8 11 6 5 10 -3 15 -9 12 -12z m30 -48 c-8 -9 -20 -12 -26 -8 -8 5 -9 3 -5
-5 5 -7 14 -10 22 -7 8 3 14 0 15 -7 0 -9 2 -9 6 1 8 21 21 13 16 -10 -5 -21
-4 -21 16 5 22 27 51 37 51 17 0 -5 -9 -10 -20 -10 -11 0 -20 -5 -20 -11 0 -5
6 -7 13 -4 6 4 3 -1 -7 -9 -22 -17 -106 -22 -106 -6 0 5 -6 7 -14 4 -8 -3 -17
-1 -21 5 -3 6 -1 11 5 11 6 0 9 8 6 18 -5 15 2 20 31 28 46 12 58 8 38 -12z
m-1255 1 c45 -23 41 -44 -5 -26 -12 5 -25 3 -33 -6 -16 -16 -58 -17 -68 -1 -9
14 31 48 58 48 10 0 32 -7 48 -15z m110 -21 c0 -2 -9 -4 -20 -4 -11 0 -20 4
-20 9 0 5 9 7 20 4 11 -3 20 -7 20 -9z"/>
<path d="M2600 2975 c27 -29 30 -30 30 -10 0 8 -7 15 -15 15 -8 0 -15 5 -15
10 0 6 -5 10 -12 10 -6 0 -1 -11 12 -25z"/>
<path d="M2768 2723 c7 -3 16 -2 19 1 4 3 -2 6 -13 5 -11 0 -14 -3 -6 -6z"/>
<path d="M3751 2564 c0 -11 3 -14 6 -6 3 7 2 16 -1 19 -3 4 -6 -2 -5 -13z"/>
<path d="M3660 2486 c0 -2 7 -6 15 -10 8 -3 15 -1 15 4 0 6 -7 10 -15 10 -8 0
-15 -2 -15 -4z"/>
<path d="M3845 2440 c-11 -5 -14 -9 -7 -9 7 -1 10 -5 7 -11 -3 -6 1 -7 9 -4
12 5 25 36 14 33 -2 0 -12 -4 -23 -9z"/>
<path d="M3806 2384 c-5 -14 -4 -15 9 -4 17 14 19 20 6 20 -5 0 -12 -7 -15
-16z"/>
<path d="M3830 2369 c0 -5 5 -7 10 -4 6 3 10 8 10 11 0 2 -4 4 -10 4 -5 0 -10
-5 -10 -11z"/>
<path d="M3626 2255 c-11 -8 -18 -15 -15 -16 52 -8 60 -7 49 6 -8 10 -8 14 2
18 9 4 9 6 -2 6 -8 0 -24 -6 -34 -14z"/>
<path d="M3180 2240 c12 -9 7 -11 -22 -8 -21 2 -38 1 -38 -3 0 -12 23 -24 41
-21 9 2 19 -4 22 -13 4 -8 13 -15 22 -15 14 0 14 2 1 23 -8 12 -15 26 -15 32
0 5 -5 11 -13 13 -9 2 -8 0 2 -8z"/>
<path d="M3590 2230 c0 -5 5 -10 11 -10 5 0 7 5 4 10 -3 6 -8 10 -11 10 -2 0
-4 -4 -4 -10z"/>
<path d="M3066 2206 c3 -9 11 -16 16 -16 13 0 5 23 -10 28 -7 2 -10 -2 -6 -12z"/>
<path d="M3100 2208 c0 -10 5 -18 11 -18 5 0 8 -4 5 -8 -2 -4 -1 -14 3 -21 6
-10 12 -9 25 4 9 9 16 12 16 6 0 -6 6 -11 14 -11 7 0 20 -8 27 -17 12 -15 12
-16 -6 -9 -11 4 -16 4 -12 0 3 -4 -3 -16 -16 -27 l-22 -19 24 7 c19 6 23 4 18
-8 -5 -14 11 -27 34 -27 13 0 11 17 -5 33 -9 8 -11 19 -6 27 5 8 6 18 4 22 -3
4 2 8 11 8 9 0 13 5 10 11 -4 6 -13 8 -21 5 -7 -3 -20 2 -29 10 -8 9 -27 17
-41 19 -15 1 -30 9 -35 16 -7 11 -9 10 -9 -3z"/>
<path d="M3696 2173 c-6 -14 -5 -15 5 -6 7 7 10 15 7 18 -3 3 -9 -2 -12 -12z"/>
<path d="M3551 2128 c-8 -22 -8 -34 -1 -36 5 -2 8 -7 6 -11 -3 -4 2 -8 10 -8
13 0 13 2 0 15 -11 11 -12 21 -5 40 5 14 8 27 5 29 -2 2 -9 -11 -15 -29z"/>
<path d="M3718 2133 c7 -3 16 -2 19 1 4 3 -2 6 -13 5 -11 0 -14 -3 -6 -6z"/>
<path d="M3009 2128 c-1 -2 -3 -13 -4 -25 -1 -13 2 -20 10 -17 7 3 11 14 8 25
-5 17 -11 24 -14 17z"/>
<path d="M3058 2113 c7 -3 16 -2 19 1 4 3 -2 6 -13 5 -11 0 -14 -3 -6 -6z"/>
<path d="M3638 2101 c10 -6 9 -11 -4 -22 -13 -11 -18 -11 -21 -1 -3 6 -9 10
-14 7 -5 -3 -3 -14 3 -24 9 -16 15 -17 30 -7 16 9 22 7 34 -8 18 -25 18 -18
-1 28 -8 20 -21 36 -28 36 -9 0 -9 -2 1 -9z"/>
<path d="M3465 2071 c-8 -17 -11 -31 -6 -31 5 0 13 9 16 21 6 17 9 18 23 7 16
-12 16 -11 2 7 -8 11 -15 22 -16 23 -2 2 -10 -10 -19 -27z"/>
<path d="M3533 2047 c1 -14 6 -22 12 -19 6 4 18 5 28 4 9 -2 17 2 17 7 0 6 -8
11 -18 11 -10 0 -23 5 -29 11 -8 8 -11 4 -10 -14z"/>
<path d="M3370 2040 c0 -5 5 -10 10 -10 6 0 10 5 10 10 0 6 -4 10 -10 10 -5 0
-10 -4 -10 -10z"/>
<path d="M3493 2036 c9 -7 17 -18 17 -25 0 -6 7 -14 15 -17 8 -4 15 -12 15
-20 0 -17 17 -18 23 -1 4 9 6 9 6 0 1 -7 11 -17 24 -23 20 -10 20 -10 5 3 -10
8 -18 23 -18 35 0 23 -23 35 -38 20 -8 -8 -13 -6 -18 8 -8 21 -23 34 -39 34
-5 -1 -2 -7 8 -14z"/>
<path d="M3600 2025 c0 -5 5 -17 10 -25 5 -8 10 -10 10 -5 0 6 -5 17 -10 25
-5 8 -10 11 -10 5z"/>
<path d="M3265 1989 c-4 -6 -5 -12 -2 -15 2 -3 7 2 10 11 7 17 1 20 -8 4z"/>
<path d="M3505 1980 c10 -11 20 -20 23 -20 3 0 -3 9 -13 20 -10 11 -20 20 -23
20 -3 0 3 -9 13 -20z"/>
<path d="M3692 1960 c13 -20 28 -27 28 -12 0 10 -22 32 -32 32 -5 0 -3 -9 4
-20z"/>
<path d="M3624 1955 c11 -8 27 -15 35 -14 11 0 12 2 3 6 -6 2 -10 9 -6 14 3 5
-7 9 -23 9 -27 -1 -27 -1 -9 -15z"/>
<path d="M3460 1956 c0 -14 122 -126 137 -126 14 1 13 4 -7 15 -14 8 -21 14
-15 15 5 0 -1 7 -13 16 -12 8 -20 20 -17 25 4 5 -1 9 -9 9 -9 0 -15 5 -13 12
1 7 -3 12 -10 13 -7 0 -18 6 -24 13 -13 12 -29 16 -29 8z"/>
<path d="M3540 1930 c0 -6 7 -13 15 -16 8 -4 13 -10 10 -14 -3 -4 11 -20 31
-35 26 -20 43 -26 63 -22 16 3 33 1 40 -6 8 -8 11 -8 11 2 0 8 10 5 29 -8 33
-24 41 -26 41 -10 0 5 -4 7 -10 4 -5 -3 -10 -2 -10 4 0 6 12 8 30 5 23 -5 30
-3 30 10 0 12 -7 14 -30 9 -26 -5 -30 -3 -24 13 4 14 3 15 -4 6 -10 -15 -62
-24 -62 -11 0 5 -6 6 -14 3 -8 -3 -16 3 -19 16 -3 12 -10 19 -16 16 -6 -4 -20
-2 -32 4 -18 10 -19 13 -5 23 14 10 8 13 -29 15 -27 2 -45 -1 -45 -8z m110
-60 c0 -5 -4 -10 -10 -10 -5 0 -10 5 -10 10 0 6 5 10 10 10 6 0 10 -4 10 -10z"/>
<path d="M3700 1915 c0 -8 9 -15 20 -15 11 0 20 2 20 5 0 2 -9 9 -20 15 -16 9
-20 8 -20 -5z"/>
<path d="M3435 1900 c-3 -5 1 -10 10 -10 9 0 13 5 10 10 -3 6 -8 10 -10 10 -2
0 -7 -4 -10 -10z"/>
<path d="M3040 1890 c0 -5 5 -10 11 -10 5 0 7 5 4 10 -3 6 -8 10 -11 10 -2 0
-4 -4 -4 -10z"/>
<path d="M3268 1873 c5 -21 7 -23 10 -9 2 10 0 22 -6 28 -6 6 -7 0 -4 -19z"/>
<path d="M3475 1890 c-11 -17 5 -30 37 -30 l31 0 -26 20 c-29 23 -33 24 -42
10z m25 -10 c0 -5 -2 -10 -4 -10 -3 0 -8 5 -11 10 -3 6 -1 10 4 10 6 0 11 -4
11 -10z"/>
<path d="M3210 1861 c0 -12 26 -32 33 -25 3 4 0 13 -8 20 -16 16 -25 18 -25 5z"/>
<path d="M3460 1846 c0 -14 -4 -15 -21 -6 -26 15 -35 7 -14 -13 21 -22 19 -34
-3 -14 -10 10 -21 14 -25 11 -3 -4 4 -15 16 -26 15 -13 18 -21 10 -24 -7 -3
-13 -10 -13 -15 0 -5 9 -4 19 3 11 7 17 16 14 21 -3 5 4 3 15 -4 12 -7 20 -17
19 -23 -1 -5 7 -12 18 -14 16 -3 18 -1 8 9 -17 17 -17 37 -1 21 18 -18 33 -15
18 3 -7 9 -18 14 -24 12 -16 -5 -39 21 -32 38 3 8 13 15 23 15 15 0 16 -2 3
-10 -8 -5 -11 -13 -6 -17 5 -4 11 -2 13 5 5 14 33 17 33 3 0 -5 -4 -11 -9 -13
-5 -1 -2 -10 7 -18 14 -13 15 -12 9 3 -3 9 -2 19 3 22 6 4 10 2 10 -3 0 -5 7
-9 15 -9 24 0 17 16 -10 23 -14 3 -25 9 -25 13 0 4 -8 7 -17 7 -10 1 -26 4
-35 9 -13 5 -18 3 -18 -9z"/>
<path d="M3700 1806 c0 -8 5 -18 10 -21 6 -3 10 1 10 9 0 8 -4 18 -10 21 -5 3
-10 -1 -10 -9z"/>
<path d="M3730 1811 c0 -5 7 -12 16 -15 14 -5 15 -4 4 9 -14 17 -20 19 -20 6z"/>
<path d="M3610 1799 c0 -5 -4 -7 -10 -4 -5 3 -10 1 -10 -4 0 -13 3 -13 24 -5
18 7 22 24 6 24 -5 0 -10 -5 -10 -11z"/>
<path d="M3385 1790 c3 -5 11 -10 16 -10 6 0 7 5 4 10 -3 6 -11 10 -16 10 -6
0 -7 -4 -4 -10z"/>
<path d="M3685 1770 c3 -5 8 -10 11 -10 2 0 4 5 4 10 0 6 -5 10 -11 10 -5 0
-7 -4 -4 -10z"/>
<path d="M3560 1765 c0 -19 21 -41 26 -28 3 7 12 9 21 6 11 -4 14 -2 9 5 -4 8
0 12 11 13 10 0 13 3 6 5 -7 3 -22 0 -34 -6 -17 -10 -23 -9 -30 1 -5 8 -9 10
-9 4z"/>
<path d="M3717 1750 c3 -11 9 -20 15 -20 5 0 4 9 -2 20 -6 11 -12 20 -14 20
-2 0 -2 -9 1 -20z"/>
<path d="M3630 1729 c0 -5 5 -7 10 -4 6 3 10 8 10 11 0 2 -4 4 -10 4 -5 0 -10
-5 -10 -11z"/>
<path d="M3100 1706 c0 -2 7 -9 15 -16 12 -10 15 -10 15 4 0 9 -7 16 -15 16
-8 0 -15 -2 -15 -4z"/>
<path d="M3197 1672 c-9 -2 -15 -8 -11 -13 3 -6 -5 -7 -20 -3 -22 5 -25 3 -20
-10 7 -18 43 -13 56 8 5 7 8 5 8 -5 0 -20 52 -43 80 -36 11 3 20 2 20 -2 0 -4
16 -8 37 -9 20 -2 40 -5 45 -8 20 -12 5 23 -19 46 -20 19 -25 20 -20 7 5 -14
3 -16 -11 -9 -9 5 -23 7 -31 4 -8 -2 -11 0 -7 6 4 7 -5 9 -25 5 -18 -3 -37 1
-47 9 -10 8 -25 13 -35 10z"/>
<path d="M3445 1650 c3 -5 8 -10 11 -10 2 0 4 5 4 10 0 6 -5 10 -11 10 -5 0
-7 -4 -4 -10z"/>
<path d="M3450 1620 c-9 -6 -10 -10 -3 -10 6 0 15 5 18 10 8 12 4 12 -15 0z"/>
<path d="M3198 1608 c9 -9 15 -9 24 0 9 9 7 12 -12 12 -19 0 -21 -3 -12 -12z"/>
<path d="M3420 1563 c0 -13 6 -23 14 -23 8 0 16 -8 18 -17 2 -10 6 -13 10 -8
3 6 -5 24 -18 40 -23 28 -24 29 -24 8z"/>
<path d="M3630 1541 c0 -6 4 -12 8 -15 5 -3 9 1 9 9 0 8 -4 15 -9 15 -4 0 -8
-4 -8 -9z"/>
<path d="M3420 1521 c0 -6 4 -13 10 -16 6 -3 7 1 4 9 -7 18 -14 21 -14 7z"/>
<path d="M3446 1491 c-6 -10 33 -23 46 -15 4 3 8 9 8 15 0 12 -47 12 -54 0z"/>
<path d="M3507 1459 c7 -7 15 -10 18 -7 3 3 -2 9 -12 12 -14 6 -15 5 -6 -5z"/>
<path d="M2511 2496 c-7 -8 -8 -17 -3 -20 6 -3 13 1 16 10 9 23 2 28 -13 10z"/>
<path d="M2920 2240 c0 -5 5 -10 10 -10 6 0 10 5 10 10 0 6 -4 10 -10 10 -5 0
-10 -4 -10 -10z"/>
<path d="M2950 2190 c-13 -8 -12 -10 3 -10 9 0 17 5 17 10 0 12 -1 12 -20 0z"/>
<path d="M3400 2290 c0 -5 5 -10 11 -10 5 0 7 5 4 10 -3 6 -8 10 -11 10 -2 0
-4 -4 -4 -10z"/>
<path d="M2905 1890 c3 -5 8 -10 11 -10 2 0 4 5 4 10 0 6 -5 10 -11 10 -5 0
-7 -4 -4 -10z"/>
<path d="M2980 1781 c0 -5 7 -12 16 -15 14 -5 15 -4 4 9 -14 17 -20 19 -20 6z"/>
<path d="M2981 1511 c-15 -28 -14 -31 13 -31 22 0 43 26 31 38 -3 3 -5 2 -5
-3 0 -4 -6 -2 -14 4 -12 10 -17 8 -25 -8z"/>
<path d="M2862 1451 c13 -9 33 -11 63 -7 27 4 46 3 50 -4 3 -6 10 -8 15 -5 5
3 13 -3 19 -12 5 -10 13 -14 17 -10 5 5 4 11 -2 15 -6 4 -16 16 -22 27 -6 11
-12 14 -12 8 0 -7 -5 -13 -11 -13 -5 0 -8 3 -6 8 3 4 -25 7 -63 7 -59 0 -65
-2 -48 -14z"/>
<path d="M3079 1424 c-11 -14 -10 -16 9 -12 13 1 23 7 23 13 1 17 -17 16 -32
-1z"/>
<path d="M3070 1392 c0 -5 14 -12 30 -14 17 -3 30 -1 30 4 0 4 -6 8 -14 8 -8
0 -21 3 -30 6 -9 3 -16 2 -16 -4z"/>
<path d="M3155 1390 c-3 -5 -3 -10 2 -10 4 0 1 -5 -7 -10 -13 -8 -13 -10 2
-10 9 0 23 3 32 6 13 5 13 8 1 20 -16 17 -22 17 -30 4z"/>
<path d="M2850 1359 c0 -5 9 -9 20 -9 11 0 20 2 20 4 0 2 -9 6 -20 9 -11 3
-20 1 -20 -4z"/>
<path d="M3036 1318 c7 -10 54 -11 54 0 0 4 -13 7 -29 7 -16 1 -27 -3 -25 -7z"/>
<path d="M2651 1294 c0 -11 3 -14 6 -6 3 7 2 16 -1 19 -3 4 -6 -2 -5 -13z"/>
<path d="M2880 1280 c0 -5 5 -10 10 -10 6 0 10 5 10 10 0 6 -4 10 -10 10 -5 0
-10 -4 -10 -10z"/>
<path d="M3293 1256 c-6 -7 -7 -19 -3 -26 6 -9 11 -7 19 8 18 34 8 45 -16 18z"/>
<path d="M3309 1188 c5 -13 13 -22 18 -21 5 1 10 -5 10 -13 0 -7 -3 -14 -7
-14 -11 0 -5 -61 8 -92 12 -29 36 -50 25 -23 -4 13 -1 16 18 14 29 -4 52 8 43
23 -4 6 -10 5 -15 -3 -7 -11 -9 -11 -9 -1 0 7 -4 10 -10 7 -5 -3 -10 -3 -11 2
-2 30 -11 59 -19 67 -6 6 -11 26 -11 46 -1 19 -3 27 -6 17 -2 -9 -9 -15 -14
-11 -5 3 -7 10 -4 15 4 5 -1 9 -9 9 -12 0 -13 -5 -7 -22z m55 -124 c8 -21 -12
-17 -24 6 -8 16 -8 18 4 14 8 -3 17 -12 20 -20z"/>
<path d="M3240 1190 c0 -5 5 -10 11 -10 5 0 7 5 4 10 -3 6 -8 10 -11 10 -2 0
-4 -4 -4 -10z"/>
<path d="M3405 1190 c3 -5 8 -10 11 -10 2 0 4 5 4 10 0 6 -5 10 -11 10 -5 0
-7 -4 -4 -10z"/>
<path d="M3260 1050 c0 -5 8 -10 18 -11 10 0 12 -3 5 -6 -7 -2 -13 -9 -13 -14
0 -4 6 -6 14 -3 8 3 17 0 21 -5 3 -6 11 -9 16 -6 14 9 11 25 -5 25 -7 0 -19 7
-26 15 -14 17 -30 20 -30 5z"/>
<path d="M3200 1002 c0 -12 19 -26 26 -19 2 2 -2 10 -11 17 -9 8 -15 8 -15 2z"/>
<path d="M3253 958 c1 -21 4 -38 8 -38 15 0 17 16 4 45 l-12 30 0 -37z"/>
<path d="M3300 910 c-21 -13 2 -35 27 -25 17 8 17 8 0 12 -9 3 -15 9 -12 14 8
11 4 11 -15 -1z"/>
<path d="M3240 901 c0 -6 4 -13 10 -16 6 -3 7 1 4 9 -7 18 -14 21 -14 7z"/>
<path d="M3353 879 c2 -13 8 -23 13 -22 15 3 15 20 -1 33 -13 11 -15 9 -12
-11z"/>
<path d="M3329 847 c6 -8 8 -17 4 -20 -3 -4 4 -7 17 -7 l23 0 -23 20 c-26 23
-38 26 -21 7z"/>
<path d="M3277 833 c-2 -5 9 -18 24 -31 16 -13 29 -19 29 -13 0 5 -5 13 -11
16 -6 4 -8 13 -5 21 6 15 -29 21 -37 7z"/>
<path d="M3676 693 c-12 -12 -5 -22 14 -20 11 1 20 4 20 8 0 10 -27 19 -34 12z"/>
<path d="M3376 681 c-7 -11 22 -23 36 -15 6 4 5 10 -3 15 -18 11 -26 11 -33 0z"/>
<path d="M3577 653 c-3 -5 6 -16 20 -27 25 -18 25 -18 14 2 -13 25 -28 35 -34
25z"/>
<path d="M3676 502 c-3 -5 1 -15 9 -22 16 -14 20 -3 6 19 -5 8 -11 9 -15 3z"/>
<path d="M3161 1153 c-1 -34 14 -52 31 -35 7 7 7 16 -1 29 -8 14 -11 15 -12 3
0 -8 -5 -4 -9 10 -8 24 -8 24 -9 -7z"/>
<path d="M2662 1200 c7 -11 16 -20 20 -20 5 0 3 9 -4 20 -7 11 -16 20 -20 20
-5 0 -3 -9 4 -20z"/>
<path d="M2797 1174 c-11 -11 -8 -24 4 -24 7 0 18 -8 25 -17 11 -16 12 -14 6
11 -8 30 -23 42 -35 30z"/>
<path d="M2765 1110 c3 -5 8 -10 11 -10 2 0 4 5 4 10 0 6 -5 10 -11 10 -5 0
-7 -4 -4 -10z"/>
<path d="M2795 1100 c3 -5 13 -10 21 -10 8 0 12 5 9 10 -3 6 -13 10 -21 10 -8
0 -12 -4 -9 -10z"/>
<path d="M2835 1080 c-3 -5 -1 -10 4 -10 6 0 11 5 11 10 0 6 -2 10 -4 10 -3 0
-8 -4 -11 -10z"/>
<path d="M2413 1013 c5 -7 -1 -13 -15 -16 l-23 -4 23 -2 c12 0 22 -5 22 -10 0
-5 9 -11 21 -14 12 -3 18 -10 14 -16 -4 -7 0 -8 10 -5 12 5 13 9 4 20 -14 17
-5 18 22 4 10 -6 19 -7 19 -3 0 12 -43 38 -58 34 -8 -1 -21 4 -30 11 -10 8
-13 9 -9 1z"/>
<path d="M2520 983 c0 -15 19 -37 26 -31 3 4 -1 14 -10 23 -9 9 -16 13 -16 8z"/>
<path d="M2460 1120 c0 -5 5 -10 11 -10 5 0 7 5 4 10 -3 6 -8 10 -11 10 -2 0
-4 -4 -4 -10z"/>
<path d="M2463 1085 c-10 -11 -9 -13 6 -12 11 1 17 7 14 14 -6 16 -5 16 -20
-2z"/>
<path d="M2470 1050 c0 -5 7 -10 15 -10 8 0 15 5 15 10 0 6 -7 10 -15 10 -8 0
-15 -4 -15 -10z"/>
<path d="M2683 743 c9 -2 23 -2 30 0 6 3 -1 5 -18 5 -16 0 -22 -2 -12 -5z"/>
<path d="M2649 592 c6 -2 11 -13 11 -23 0 -32 29 -79 48 -78 11 0 12 2 4 6 -7
3 -20 19 -28 35 -15 28 -15 30 0 25 22 -9 47 2 39 17 -4 6 1 5 10 -3 22 -17
22 -32 1 -24 -15 5 -15 3 1 -20 12 -20 14 -27 4 -27 -26 0 -1 -10 37 -15 l39
-5 -33 20 c-33 21 -43 34 -17 24 8 -4 15 -1 15 5 0 6 -4 11 -10 11 -5 0 -10
11 -10 25 0 18 -5 25 -20 25 -10 0 -23 -6 -27 -14 -7 -12 -10 -11 -23 2 -13
14 -12 15 3 9 9 -3 17 -2 17 2 0 5 -16 9 -36 8 -20 -1 -32 -3 -25 -5z"/>
<path d="M2580 565 c0 -5 5 -17 10 -25 5 -8 10 -10 10 -5 0 6 -5 17 -10 25 -5
8 -10 11 -10 5z"/>
<path d="M2700 465 c0 -19 32 -33 38 -17 2 7 8 9 14 6 6 -4 9 -1 6 6 -6 20
-58 24 -58 5z"/>
<path d="M2900 432 c0 -11 7 -22 15 -26 9 -3 15 0 15 8 0 7 -7 19 -15 26 -12
10 -15 9 -15 -8z"/>
<path d="M2835 380 c-3 -5 1 -10 10 -10 9 0 13 5 10 10 -3 6 -8 10 -10 10 -2
0 -7 -4 -10 -10z"/>
<path d="M2770 350 c0 -5 5 -10 11 -10 5 0 7 5 4 10 -3 6 -8 10 -11 10 -2 0
-4 -4 -4 -10z"/>
<path d="M2830 280 c0 -6 -4 -8 -10 -5 -6 3 -7 -1 -4 -10 4 -9 9 -12 13 -8 3
4 10 11 15 14 4 4 3 10 -3 13 -6 4 -11 2 -11 -4z"/>
<path d="M3820 575 c9 -9 24 -12 38 -8 29 7 10 23 -28 23 -21 0 -23 -2 -10
-15z"/>
<path d="M3906 535 c4 -8 10 -15 15 -15 4 0 6 7 3 15 -4 8 -10 15 -15 15 -4 0
-6 -7 -3 -15z"/>
<path d="M3810 529 c0 -5 -4 -7 -10 -4 -5 3 -10 -1 -10 -10 0 -12 5 -15 16
-11 9 3 23 6 31 6 13 0 13 3 3 15 -14 17 -30 20 -30 4z"/>
<path d="M3770 476 c0 -9 5 -16 10 -16 6 0 10 4 10 9 0 6 -4 13 -10 16 -5 3
-10 -1 -10 -9z"/>
<path d="M3819 453 c6 -13 16 -23 21 -23 6 0 10 -9 10 -20 0 -11 5 -20 11 -20
5 0 8 -4 4 -10 -3 -5 9 -14 27 -19 18 -5 27 -10 19 -10 -11 -1 -8 -8 8 -25 15
-16 29 -22 43 -18 18 4 16 6 -11 18 -27 11 -30 16 -22 33 9 15 7 20 -10 24
-11 3 -23 15 -26 26 -3 11 -15 23 -27 27 -11 3 -30 14 -40 23 -18 15 -18 15
-7 -6z"/>
<path d="M3920 440 c0 -5 5 -10 10 -10 6 0 10 5 10 10 0 6 -4 10 -10 10 -5 0
-10 -4 -10 -10z"/>
<path d="M3955 420 c3 -5 8 -10 11 -10 2 0 4 5 4 10 0 6 -5 10 -11 10 -5 0 -7
-4 -4 -10z"/>
<path d="M3830 393 c0 -7 -7 -13 -15 -13 -8 0 -15 -4 -15 -9 0 -5 7 -14 15
-21 11 -9 15 -9 15 -1 0 7 5 9 10 6 13 -8 13 15 0 35 -6 10 -10 11 -10 3z"/>
<path d="M4020 279 c0 -5 5 -7 10 -4 6 3 10 8 10 11 0 2 -4 4 -10 4 -5 0 -10
-5 -10 -11z"/>
<path d="M3965 239 c7 -11 35 -12 35 -1 0 4 -9 8 -20 9 -11 1 -18 -2 -15 -8z"/>
<path d="M2620 195 c-20 -24 -6 -28 15 -5 10 11 13 20 8 20 -6 0 -16 -7 -23
-15z"/>
</g>
</svg>
